<?xml version="1.0" encoding="utf-8"?>
<!-- Generator: Adobe Illustrator 26.0.3, SVG Export Plug-In . SVG Version: 6.00 Build 0)  -->
<svg version="1.0" id="Layer_1" xmlns="http://www.w3.org/2000/svg" xmlns:xlink="http://www.w3.org/1999/xlink" x="0px" y="0px"
	 viewBox="0 0 648.8 449.6" style="enable-background:new 0 0 648.8 449.6;" xml:space="preserve">
<style type="text/css">
	.st0{fill:#1C283E;}
	.st1{fill:#1B283B;}
	.st2{fill:#202B3F;}
	.st3{fill:#FFFFFF;}
	.st4{fill:#2B4F45;}
</style>
<g>
	<path id="path6" class="st0" d="M285.5,241.3c3.1,0.7,6.2,1,9.4,1c9.4,0,14-4,14-11c0-4.8-3.4-13.2-19-13.2h-4.4V241.3z M285.5,216
		h4c8.1,0,16.5-1.4,16.5-10.8c0-6.6-5.8-9.8-14.5-9.8c-1.9,0-4,0.2-6,0.3L285.5,216z M268.6,243l3.7-0.2c3.9-0.3,3.9-0.6,3.9-10.2
		v-27.3c0-9.5,0-10-3.9-10.2l-3.7-0.3v-1.6h27.1c15.3,0,19.9,4.8,19.9,10.6c0,8.4-9.9,11.9-13.7,12.6v0.2
		c8.1,0.6,17.9,4.7,17.9,13.4c0,10.3-11.3,14.7-25.5,14.7h-25.5V243"/>
	<path id="path8" class="st0" d="M285.5,241.3c3.1,0.7,6.2,1,9.4,1c9.4,0,14-4,14-11c0-4.8-3.4-13.2-19-13.2h-4.4V241.3z M285.5,216
		h4c8.1,0,16.5-1.4,16.5-10.8c0-6.6-5.8-9.8-14.5-9.8c-1.9,0-4,0.2-6,0.3L285.5,216z M268.6,243l3.7-0.2c3.9-0.3,3.9-0.6,3.9-10.2
		v-27.3c0-9.5,0-10-3.9-10.2l-3.7-0.3v-1.6h27.1c15.3,0,19.9,4.8,19.9,10.6c0,8.4-9.9,11.9-13.7,12.6v0.2
		c8.1,0.6,17.9,4.7,17.9,13.4c0,10.3-11.3,14.7-25.5,14.7h-25.5V243L268.6,243z"/>
	<path id="path10" class="st0" d="M318.8,243l3.7-0.2c3.9-0.3,3.9-0.6,3.9-10.2v-27.3c0-9.5,0-9.8-3.9-10.2l-3.7-0.3v-1.6h43.6
		c0.7,2.7,1.1,5.5,1.1,8.2c0,1.8-0.2,2.4-0.2,3.1l-2.4,0.3c-2.3-8.4-2.4-9.5-16.8-9.5h-8.4v21.3h9c7.9,0,9.7,0,10.3-3.2l0.5-2.6h2.7
		v14h-2.5l-0.6-2.6c-0.6-3.2-2.4-3.2-10.3-3.2h-9v22.3c3.6,0.7,7.3,1,11,1c16.1,0,17.1-4.7,19.2-11.1l2.6,0.3
		c-0.3,4.5-1.5,8.9-3.4,12.9h-46.4V243"/>
	<path id="path12" class="st0" d="M318.8,243l3.7-0.2c3.9-0.3,3.9-0.6,3.9-10.2v-27.3c0-9.5,0-9.8-3.9-10.2l-3.7-0.3v-1.6h43.6
		c0.7,2.7,1.1,5.5,1.1,8.2c0,1.8-0.2,2.4-0.2,3.1l-2.4,0.3c-2.3-8.4-2.4-9.5-16.8-9.5h-8.4v21.3h9c7.9,0,9.7,0,10.3-3.2l0.5-2.6h2.7
		v14h-2.5l-0.6-2.6c-0.6-3.2-2.4-3.2-10.3-3.2h-9v22.3c3.6,0.7,7.3,1,11,1c16.1,0,17.1-4.7,19.2-11.1l2.6,0.3
		c-0.3,4.5-1.5,8.9-3.4,12.9h-46.4V243z"/>
	<path id="path14" class="st0" d="M368,243l1.9-0.5c0.9-0.2,1.7-0.5,2.4-1c0.8-0.8,1.3-5.8,1.8-12.9l1.3-19.6c0.3-5.3,1-14.4,1-16.3
		h2.1c2.3,4,20.2,37.4,22.6,41.8c2.6-4,20.2-37.8,21.6-41.6h2.1c0,0.6,0.3,9.2,0.8,19.5l0.5,13.2c0.3,6.6,0.8,14.2,1.5,15.3
		c0.7,0.9,1.8,1.5,2.9,1.5l1.6,0.5v1.8h-19.2v-1.8l3.1-0.5c3.4-0.3,3.7-1.6,3.7-5.2c0-8.7-1.3-25-1.3-30h-0.2
		c-1.3,3.4-9.4,18.7-17,33.9c-0.3,0.9-0.7,1.7-1.1,2.4l-2.2,1c-1.8-3.5-11.6-22.6-17-32.9c-0.8-1.5-1.5-3-2.1-4.5h-0.2
		c-0.2,4.5-1.3,26.5-1.3,28.9c0,4.5,0,6,3.7,6.3l3.1,0.5v1.8H368V243"/>
	<path id="path16" class="st0" d="M368,243l1.9-0.5c0.9-0.2,1.7-0.5,2.4-1c0.8-0.8,1.3-5.8,1.8-12.9l1.3-19.6c0.3-5.3,1-14.4,1-16.3
		h2.1c2.3,4,20.2,37.4,22.6,41.8c2.6-4,20.2-37.8,21.6-41.6h2.1c0,0.6,0.3,9.2,0.8,19.5l0.5,13.2c0.3,6.6,0.8,14.2,1.5,15.3
		c0.7,0.9,1.8,1.5,2.9,1.5l1.6,0.5v1.8h-19.2v-1.8l3.1-0.5c3.4-0.3,3.7-1.6,3.7-5.2c0-8.7-1.3-25-1.3-30h-0.2
		c-1.3,3.4-9.4,18.7-17,33.9c-0.3,0.9-0.7,1.7-1.1,2.4l-2.2,1c-1.8-3.5-11.6-22.6-17-32.9c-0.8-1.5-1.5-3-2.1-4.5h-0.2
		c-0.2,4.5-1.3,26.5-1.3,28.9c0,4.5,0,6,3.7,6.3l3.1,0.5v1.8H368V243z"/>
	<path id="path18" class="st0" d="M434.8,243l3.7-0.2c3.9-0.3,3.9-0.6,3.9-10.2v-27.3c0-9.5,0-9.8-3.9-10.2l-3.7-0.3v-1.6h24.5v1.6
		l-3.7,0.2c-3.9,0.3-3.9,0.6-3.9,10.2v27.1c0,9.5,0,9.8,3.9,10.2l3.7,0.2v1.8h-24.5V243"/>
	<path id="path20" class="st0" d="M434.8,243l3.7-0.2c3.9-0.3,3.9-0.6,3.9-10.2v-27.3c0-9.5,0-9.8-3.9-10.2l-3.7-0.3v-1.6h24.5v1.6
		l-3.7,0.2c-3.9,0.3-3.9,0.6-3.9,10.2v27.1c0,9.5,0,9.8,3.9,10.2l3.7,0.2v1.8h-24.5V243z"/>
	<path id="path22" class="st0" d="M477.1,241.3c2.3,0.3,4.5,0.6,6.9,0.8c14.2,0,22.1-7.9,22.1-23.1c0-16.3-8.9-23.2-22.8-23.2
		c-2.1,0-6.1,0.5-6.1,0.5L477.1,241.3L477.1,241.3z M461.9,243l2.8-0.2c3.1-0.3,3.1-0.6,3.1-10.2v-27.3c0-9.5,0-9.8-3.1-10.2
		l-2.8-0.3v-1.6h25.5c16.6,0,26.6,8.7,26.6,23.9c0,20.3-15,27.6-31.3,27.6h-20.9V243"/>
	<path id="path24" class="st0" d="M477.1,241.3c2.3,0.3,4.5,0.6,6.9,0.8c14.2,0,22.1-7.9,22.1-23.1c0-16.3-8.9-23.2-22.8-23.2
		c-2.1,0-6.1,0.5-6.1,0.5L477.1,241.3L477.1,241.3z M461.9,243l2.8-0.2c3.1-0.3,3.1-0.6,3.1-10.2v-27.3c0-9.5,0-9.8-3.1-10.2
		l-2.8-0.3v-1.6h25.5c16.6,0,26.6,8.7,26.6,23.9c0,20.3-15,27.6-31.3,27.6h-20.9V243z"/>
	<path id="path26" class="st0" d="M510.9,253.3c9.8-3.7,11.8-11.9,11.8-22.4v-25.5c0-9.5,0-9.8-4-10.2l-2.9-0.3v-1.6H539v1.6
		l-2.9,0.2c-4,0.3-4,0.6-4,10.2v25.7c0,15.3-3.4,19.5-20.5,23.7L510.9,253.3"/>
	<path id="path28" class="st0" d="M510.9,253.3c9.8-3.7,11.8-11.9,11.8-22.4v-25.5c0-9.5,0-9.8-4-10.2l-2.9-0.3v-1.6H539v1.6
		l-2.9,0.2c-4,0.3-4,0.6-4,10.2v25.7c0,15.3-3.4,19.5-20.5,23.7L510.9,253.3z"/>
	<path id="path30" class="st0" d="M541.6,243l2.9-0.2c4-0.3,4-0.6,4-10.2v-27.3c0-9.5,0-9.8-4-10.2l-2.9-0.3v-1.6h23.2v1.6l-2.9,0.2
		c-4,0.3-4,0.6-4,10.2v27.1c0,9.5,0,9.8,4,10.2l2.9,0.2v1.8h-23.2V243"/>
	<path id="path32" class="st0" d="M541.6,243l2.9-0.2c4-0.3,4-0.6,4-10.2v-27.3c0-9.5,0-9.8-4-10.2l-2.9-0.3v-1.6h23.2v1.6l-2.9,0.2
		c-4,0.3-4,0.6-4,10.2v27.1c0,9.5,0,9.8,4,10.2l2.9,0.2v1.8h-23.2V243z"/>
	<path id="path34" class="st0" d="M278.8,261.7c1.9,1,3.7,1.9,3.7,4.4c0,2.9-2.9,4-5.3,4c-1.3,0-2.5-0.3-3.7-0.8
		c-0.5-1.2-0.8-2.4-0.8-3.7l0.8-0.2c0.2,2.3,2.1,4,4.4,4c1.3,0.2,2.6-0.8,2.7-2.1c0-0.1,0-0.1,0-0.2v-0.3c0-1.6-1.4-2.6-3.2-3.4
		l-1.5-0.8c-1.4-0.6-2.4-2-2.6-3.5c0-2.6,2.4-3.7,4.8-3.7c1.1,0,2.2,0.2,3.2,0.6c0.2,1,0.3,1.9,0.3,2.9H281c-0.1-1.7-1.4-3-3.1-2.9
		c0,0-0.1,0-0.1,0c-1.3-0.1-2.5,0.9-2.6,2.3v0.2c0,1.3,1,1.9,2.3,2.6L278.8,261.7"/>
	<path id="path36" class="st0" d="M278.8,261.7c1.9,1,3.7,1.9,3.7,4.4c0,2.9-2.9,4-5.3,4c-1.3,0-2.5-0.3-3.7-0.8
		c-0.5-1.2-0.8-2.4-0.8-3.7l0.8-0.2c0.2,2.3,2.1,4,4.4,4c1.3,0.2,2.6-0.8,2.7-2.1c0-0.1,0-0.1,0-0.2v-0.3c0-1.6-1.4-2.6-3.2-3.4
		l-1.5-0.8c-1.4-0.6-2.4-2-2.6-3.5c0-2.6,2.4-3.7,4.8-3.7c1.1,0,2.2,0.2,3.2,0.6c0.2,1,0.3,1.9,0.3,2.9H281c-0.1-1.7-1.4-3-3.1-2.9
		c0,0-0.1,0-0.1,0c-1.3-0.1-2.5,0.9-2.6,2.3v0.2c0,1.3,1,1.9,2.3,2.6L278.8,261.7z"/>
	<path id="path38" class="st0" d="M288.4,269.3h0.8c1.3,0,1.3-0.2,1.3-2.7v-10.2h-1.3c-3.4,0-3.4,0.3-3.9,2.7h-0.5v-1
		c0-0.8,0.1-1.6,0.3-2.4h13.1c0.2,0.8,0.3,1.6,0.3,2.4v1h-0.6c-0.5-2.4-0.6-2.7-3.9-2.7h-1.3v10.2c0,2.6,0,2.7,1.3,2.7h0.8v0.5h-6.5
		V269.3"/>
	<path id="path40" class="st0" d="M288.4,269.3h0.8c1.3,0,1.3-0.2,1.3-2.7v-10.2h-1.3c-3.4,0-3.4,0.3-3.9,2.7h-0.5v-1
		c0-0.8,0.1-1.6,0.3-2.4h13.1c0.2,0.8,0.3,1.6,0.3,2.4v1h-0.6c-0.5-2.4-0.6-2.7-3.9-2.7h-1.3v10.2c0,2.6,0,2.7,1.3,2.7h0.8v0.5h-6.5
		V269.3z"/>
	<path id="path42" class="st0" d="M303.4,263.5c0.6,0,1.5-0.2,2.1-0.2c0.8,0,1.5,0,2.3,0.2l-2.1-5.2L303.4,263.5z M298.6,269.3h0.5
		c1-0.2,1-0.3,1.6-1.6l4.8-10.8c0.2-0.5,0.3-0.8,0.5-1.3l0.6-0.2l5.2,12.3c0.3,0.8,0.6,1.3,1.1,1.5l1,0.2v0.5h-5.6v-0.5l1-0.2
		c0.5,0,0.6-0.2,0.6-0.3l-0.2-0.5l-1.6-4c-0.9-0.1-1.7-0.2-2.6-0.2c-0.8,0-1.6,0.2-2.4,0.2l-1.1,2.9l-0.5,1.5c0,0.3,0.3,0.5,0.6,0.5
		l1.5,0.2v0.5h-5L298.6,269.3"/>
	<path id="path44" class="st0" d="M303.4,263.5c0.6,0,1.5-0.2,2.1-0.2c0.8,0,1.5,0,2.3,0.2l-2.1-5.2L303.4,263.5z M298.6,269.3h0.5
		c1-0.2,1-0.3,1.6-1.6l4.8-10.8c0.2-0.5,0.3-0.8,0.5-1.3l0.6-0.2l5.2,12.3c0.3,0.8,0.6,1.3,1.1,1.5l1,0.2v0.5h-5.6v-0.5l1-0.2
		c0.5,0,0.6-0.2,0.6-0.3l-0.2-0.5l-1.6-4c-0.9-0.1-1.7-0.2-2.6-0.2c-0.8,0-1.6,0.2-2.4,0.2l-1.1,2.9l-0.5,1.5c0,0.3,0.3,0.5,0.6,0.5
		l1.5,0.2v0.5h-5L298.6,269.3z"/>
	<path id="path46" class="st0" d="M317.5,269.3h0.8c1.3,0,1.3-0.2,1.3-2.7v-10.2h-1.3c-3.4,0-3.4,0.3-3.9,2.7h-0.6v-1
		c0-0.8,0.1-1.6,0.3-2.4h13.1c0.2,0.8,0.2,1.6,0.3,2.4v1h-0.6c-0.5-2.4-0.6-2.7-3.9-2.7h-1.3v10.2c0,2.6,0,2.7,1.3,2.7h0.8v0.5h-6.5
		L317.5,269.3"/>
	<path id="path48" class="st0" d="M317.5,269.3h0.8c1.3,0,1.3-0.2,1.3-2.7v-10.2h-1.3c-3.4,0-3.4,0.3-3.9,2.7h-0.6v-1
		c0-0.8,0.1-1.6,0.3-2.4h13.1c0.2,0.8,0.2,1.6,0.3,2.4v1h-0.6c-0.5-2.4-0.6-2.7-3.9-2.7h-1.3v10.2c0,2.6,0,2.7,1.3,2.7h0.8v0.5h-6.5
		L317.5,269.3L317.5,269.3z"/>
	<path id="path50" class="st0" d="M331,269.3h0.8c1,0,1-0.2,1-2.7v-7.4c0-2.6,0-2.7-1-2.7H331v-0.5h10c0.2,0.7,0.3,1.5,0.3,2.2v0.8
		h-0.6c-0.5-2.3-0.6-2.6-3.9-2.6h-1.9v5.8h2.1c1.8,0,2.2,0,2.4-0.8l0.2-0.8h0.6v3.7h-0.6l-0.2-0.8c-0.2-0.8-0.5-1-2.4-1h-2.1v6.1
		c0.8,0.2,1.7,0.3,2.6,0.3c3.7,0,3.9-1.3,4.4-3.1h0.6c0,1.2-0.3,2.4-0.8,3.5H331V269.3"/>
	<path id="path52" class="st0" d="M331,269.3h0.8c1,0,1-0.2,1-2.7v-7.4c0-2.6,0-2.7-1-2.7H331v-0.5h10c0.2,0.7,0.3,1.5,0.3,2.2v0.8
		h-0.6c-0.5-2.3-0.6-2.6-3.9-2.6h-1.9v5.8h2.1c1.8,0,2.2,0,2.4-0.8l0.2-0.8h0.6v3.7h-0.6l-0.2-0.8c-0.2-0.8-0.5-1-2.4-1h-2.1v6.1
		c0.8,0.2,1.7,0.3,2.6,0.3c3.7,0,3.9-1.3,4.4-3.1h0.6c0,1.2-0.3,2.4-0.8,3.5H331V269.3z"/>
	<path id="path54" class="st0" d="M366.7,269.4c-0.3-0.3-0.5-0.6-0.8-0.6c-1.7,0.8-3.5,1.3-5.3,1.3c-4.8,0-5.2-2.6-5.2-5.5v-5.7
		c0-2.6,0-2.7-1-2.7h-1v-0.5h5.6v0.5h-0.8c-1,0-1,0.2-1,2.7v5.3c0,3.1,0.6,5,4.2,5c1.6,0.1,3.1-0.5,4.2-1.6v-8.7c0-2.6,0-2.7-1-2.7
		h-0.8v-0.5h5.6v0.5h-0.8c-1,0-1,0.2-1,2.7v10.8L367,270l-0.5-0.5"/>
	<path id="path56" class="st0" d="M366.7,269.4c-0.3-0.3-0.5-0.6-0.8-0.6c-1.7,0.8-3.5,1.3-5.3,1.3c-4.8,0-5.2-2.6-5.2-5.5v-5.7
		c0-2.6,0-2.7-1-2.7h-1v-0.5h5.6v0.5h-0.8c-1,0-1,0.2-1,2.7v5.3c0,3.1,0.6,5,4.2,5c1.6,0.1,3.1-0.5,4.2-1.6v-8.7c0-2.6,0-2.7-1-2.7
		h-0.8v-0.5h5.6v0.5h-0.8c-1,0-1,0.2-1,2.7v10.8L367,270l-0.5-0.5L366.7,269.4z"/>
	<path id="path58" class="st0" d="M371.7,269.3h0.8c1,0,1.1-0.7,1.1-3.1v-10.5l0.5-0.2c1.9,2.3,8.9,8.7,11.5,11v-7.4
		c0-2.4,0-2.9-1.3-3.1h-0.8v-0.5h5v0.7h-0.8c-0.8,0-1,0.6-1,3.1v10.5l-0.5,0.2c-0.5-0.5-1.9-1.9-4.4-4.2l-7.1-6.8v7.1
		c0,2.3,0,2.9,1.3,3.1h0.8v0.5h-5v-0.3"/>
	<path id="path60" class="st0" d="M371.7,269.3h0.8c1,0,1.1-0.7,1.1-3.1v-10.5l0.5-0.2c1.9,2.3,8.9,8.7,11.5,11v-7.4
		c0-2.4,0-2.9-1.3-3.1h-0.8v-0.5h5v0.7h-0.8c-0.8,0-1,0.6-1,3.1v10.5l-0.5,0.2c-0.5-0.5-1.9-1.9-4.4-4.2l-7.1-6.8v7.1
		c0,2.3,0,2.9,1.3,3.1h0.8v0.5h-5v-0.3L371.7,269.3z"/>
	<path id="path62" class="st0" d="M392.2,269.3h0.8c1,0,1-0.2,1-2.7v-7.4c0-2.6,0-2.7-1-2.7l-0.8-0.2v-0.5h5.6v0.5H397
		c-1,0-1,0.2-1,2.7v7.4c0,2.6,0,2.8,1,2.8h0.8v0.5h-5.6V269.3"/>
	<path id="path64" class="st0" d="M392.2,269.3h0.8c1,0,1-0.2,1-2.7v-7.4c0-2.6,0-2.7-1-2.7l-0.8-0.2v-0.5h5.6v0.5H397
		c-1,0-1,0.2-1,2.7v7.4c0,2.6,0,2.8,1,2.8h0.8v0.5h-5.6V269.3z"/>
	<path id="path66" class="st0" d="M402,258c-0.3-0.8-0.6-1.6-1.5-1.6h-0.6v-0.5h5.8v0.3h-0.6c-0.3,0-1,0.2-1,0.5l0.3,0.8l4,9.5
		c0.5-1.3,4.2-9.5,4.2-10.2s-0.5-0.5-1-0.6l-1-0.2v-0.5h5v0.6l-0.6,0.2l-0.6,0.3c-0.7,1.1-1.3,2.3-1.8,3.5l-1.5,3.6
		c-1.3,2.9-2.6,5.5-2.8,6.1c-0.3,0.2-0.5,0.2-0.8,0.3L402,258"/>
	<path id="path68" class="st0" d="M402,258c-0.3-0.8-0.6-1.6-1.5-1.6h-0.6v-0.5h5.8v0.3h-0.6c-0.3,0-1,0.2-1,0.5l0.3,0.8l4,9.5
		c0.5-1.3,4.2-9.5,4.2-10.2s-0.5-0.5-1-0.6l-1-0.2v-0.5h5v0.6l-0.6,0.2l-0.6,0.3c-0.7,1.1-1.3,2.3-1.8,3.5l-1.5,3.6
		c-1.3,2.9-2.6,5.5-2.8,6.1c-0.3,0.2-0.5,0.2-0.8,0.3L402,258L402,258z"/>
	<path id="path70" class="st0" d="M417.4,269.3h0.8c1,0,1-0.2,1-2.7v-7.4c0-2.6,0-2.7-1-2.7h-0.8v-0.5h10c0.2,0.7,0.3,1.5,0.3,2.2
		v0.8H427c-0.5-2.3-0.6-2.6-3.9-2.6h-1.9v5.8h2.1c1.8,0,2.3,0,2.4-0.8l0.2-0.8h0.6v3.7h-0.6l-0.2-0.8c-0.2-0.8-0.6-1-2.4-1h-2.1v6.1
		c0.8,0.2,1.7,0.3,2.6,0.3c3.7,0,4-1.3,4.5-3.1h0.6c-0.1,1.2-0.4,2.4-0.8,3.5h-10.6v-0.2"/>
	<path id="path72" class="st0" d="M417.4,269.3h0.8c1,0,1-0.2,1-2.7v-7.4c0-2.6,0-2.7-1-2.7h-0.8v-0.5h10c0.2,0.7,0.3,1.5,0.3,2.2
		v0.8H427c-0.5-2.3-0.6-2.6-3.9-2.6h-1.9v5.8h2.1c1.8,0,2.3,0,2.4-0.8l0.2-0.8h0.6v3.7h-0.6l-0.2-0.8c-0.2-0.8-0.6-1-2.4-1h-2.1v6.1
		c0.8,0.2,1.7,0.3,2.6,0.3c3.7,0,4-1.3,4.5-3.1h0.6c-0.1,1.2-0.4,2.4-0.8,3.5h-10.6v-0.2L417.4,269.3z"/>
	<path id="path74" class="st0" d="M436.4,263.1h1.3c1.8,0.3,3.4-1,3.7-2.7c0,0,0,0,0,0v-0.6c0-2.4-1.8-3.2-3.5-3.2
		c-0.5,0-1,0-1.5,0.2V263.1L436.4,263.1z M432.6,269.3h0.8c1,0,1-0.2,1-2.7v-7.4c0-2.6,0-2.7-1-2.7l-0.8-0.2v-0.5h6.1
		c2.3,0,5.3,0.3,5.3,3.5c0,1.9-1.9,3.2-3.2,3.7c0.3,0.6,1.1,1.9,1.8,3.1c0.6,1.2,1.5,2.3,2.6,3.2c0.4,0.1,0.7,0.2,1.1,0.2v0.5h-1.8
		c-1.4,0-2.8-0.8-3.4-2.1l-1-1.6c-0.3-0.8-0.8-1.5-1.5-2.1c-0.5-0.2-1-0.3-1.5-0.3h-0.8v2.8c0,2.6,0,2.7,1,2.7h0.8v0.5h-5.6
		L432.6,269.3"/>
	<path id="path76" class="st0" d="M436.4,263.1h1.3c1.8,0.3,3.4-1,3.7-2.7c0,0,0,0,0,0v-0.6c0-2.4-1.8-3.2-3.5-3.2
		c-0.5,0-1,0-1.5,0.2V263.1L436.4,263.1z M432.6,269.3h0.8c1,0,1-0.2,1-2.7v-7.4c0-2.6,0-2.7-1-2.7l-0.8-0.2v-0.5h6.1
		c2.3,0,5.3,0.3,5.3,3.5c0,1.9-1.9,3.2-3.2,3.7c0.3,0.6,1.1,1.9,1.8,3.1c0.6,1.2,1.5,2.3,2.6,3.2c0.4,0.1,0.7,0.2,1.1,0.2v0.5h-1.8
		c-1.4,0-2.8-0.8-3.4-2.1l-1-1.6c-0.3-0.8-0.8-1.5-1.5-2.1c-0.5-0.2-1-0.3-1.5-0.3h-0.8v2.8c0,2.6,0,2.7,1,2.7h0.8v0.5h-5.6
		L432.6,269.3z"/>
	<path id="path78" class="st0" d="M455,261.7c1.8,1,3.7,1.9,3.7,4.4c0,2.9-2.9,4-5.5,4c-1.3,0-2.5-0.3-3.7-0.8
		c-0.5-1.2-0.8-2.4-0.8-3.7l0.8-0.2c0.2,2.3,2.1,4,4.4,4c1.3,0.2,2.6-0.8,2.7-2.1c0-0.1,0-0.1,0-0.2v-0.3c0-1.6-1.5-2.6-3.2-3.4
		l-1.5-0.8c-1.4-0.6-2.4-2-2.6-3.5c0-2.6,2.4-3.7,4.8-3.7c1.1,0,2.2,0.2,3.2,0.6c0.1,1,0.2,1.9,0.2,2.9h-0.6
		c-0.1-1.6-1.4-2.9-3.1-2.9h-0.2c-1.3-0.1-2.5,0.9-2.6,2.3v0.2c0,1.3,1,1.9,2.3,2.6L455,261.7"/>
	<path id="path80" class="st0" d="M455,261.7c1.8,1,3.7,1.9,3.7,4.4c0,2.9-2.9,4-5.5,4c-1.3,0-2.5-0.3-3.7-0.8
		c-0.5-1.2-0.8-2.4-0.8-3.7l0.8-0.2c0.2,2.3,2.1,4,4.4,4c1.3,0.2,2.6-0.8,2.7-2.1c0-0.1,0-0.1,0-0.2v-0.3c0-1.6-1.5-2.6-3.2-3.4
		l-1.5-0.8c-1.4-0.6-2.4-2-2.6-3.5c0-2.6,2.4-3.7,4.8-3.7c1.1,0,2.2,0.2,3.2,0.6c0.1,1,0.2,1.9,0.2,2.9h-0.6
		c-0.1-1.6-1.4-2.9-3.1-2.9h-0.2c-1.3-0.1-2.5,0.9-2.6,2.3v0.2c0,1.3,1,1.9,2.3,2.6L455,261.7z"/>
	<path id="path82" class="st0" d="M463.2,269.3h0.8c1,0,1-0.2,1-2.7v-7.4c0-2.6,0-2.7-1-2.7l-0.8-0.2v-0.5h5.6v0.5H468
		c-1,0-1,0.2-1,2.7v7.4c0,2.6,0,2.8,1,2.8h0.8v0.5h-5.6V269.3"/>
	<path id="path84" class="st0" d="M463.2,269.3h0.8c1,0,1-0.2,1-2.7v-7.4c0-2.6,0-2.7-1-2.7l-0.8-0.2v-0.5h5.6v0.5H468
		c-1,0-1,0.2-1,2.7v7.4c0,2.6,0,2.8,1,2.8h0.8v0.5h-5.6V269.3z"/>
	<path id="path86" class="st0" d="M475.8,269.3h0.8c1.3,0,1.3-0.2,1.3-2.7v-10.2h-1.3c-3.2,0-3.4,0.3-3.9,2.7h-0.6v-1
		c0-0.8,0.1-1.6,0.3-2.4h13c0.2,0.8,0.3,1.6,0.3,2.4v1h-0.6c-0.5-2.4-0.6-2.7-3.9-2.7h-1.3v10.2c0,2.6,0,2.7,1.3,2.7h0.8v0.5h-6.5
		L475.8,269.3"/>
	<path id="path88" class="st0" d="M475.8,269.3h0.8c1.3,0,1.3-0.2,1.3-2.7v-10.2h-1.3c-3.2,0-3.4,0.3-3.9,2.7h-0.6v-1
		c0-0.8,0.1-1.6,0.3-2.4h13c0.2,0.8,0.3,1.6,0.3,2.4v1h-0.6c-0.5-2.4-0.6-2.7-3.9-2.7h-1.3v10.2c0,2.6,0,2.7,1.3,2.7h0.8v0.5h-6.5
		L475.8,269.3L475.8,269.3z"/>
	<path id="path90" class="st0" d="M491.7,269.3h1c1.1,0,1.1-0.7,1.1-1.3v-2.8c-0.1-0.9-0.5-1.8-1.1-2.6l-3.1-5.3
		c-0.3-0.5-0.6-1-1.3-1h-0.6v-0.5h6v0.3h-0.8c-0.3,0-1,0.2-1,0.5c1.1,2.2,2.3,4.4,3.7,6.5c1.3-2.1,2.4-4.2,3.5-6.5
		c0-0.5-0.5-0.5-1-0.6h-1.1v-0.5h5v0.6l-0.6,0.2l-0.6,0.3c-1.2,1.3-2.1,2.7-2.9,4.2l-1,1.8c-0.5,0.8-0.8,1.7-0.8,2.6v2.8
		c0,0.6,0,1.3,1.1,1.3h1v0.5h-6.5V269.3"/>
	<path id="path92" class="st0" d="M491.7,269.3h1c1.1,0,1.1-0.7,1.1-1.3v-2.8c-0.1-0.9-0.5-1.8-1.1-2.6l-3.1-5.3
		c-0.3-0.5-0.6-1-1.3-1h-0.6v-0.5h6v0.3h-0.8c-0.3,0-1,0.2-1,0.5c1.1,2.2,2.3,4.4,3.7,6.5c1.3-2.1,2.4-4.2,3.5-6.5
		c0-0.5-0.5-0.5-1-0.6h-1.1v-0.5h5v0.6l-0.6,0.2l-0.6,0.3c-1.2,1.3-2.1,2.7-2.9,4.2l-1,1.8c-0.5,0.8-0.8,1.7-0.8,2.6v2.8
		c0,0.6,0,1.3,1.1,1.3h1v0.5h-6.5V269.3L491.7,269.3z"/>
	<path id="path94" class="st1" d="M153.7,165c41.9,0,76,27.6,76,61.5c0,15.8-7.8,31.6-17.8,39.2c-4,2.9-11,4.8-20.2,5.2
		c-11.5,0.5-17.8-2.9-17.8-2.9s-2.4,3.2-13.1,3.4c-12.4,0.3-14-3.4-14-3.4s-2.6,3.4-14.2,3.4c-9.4,0-11.4-3.4-11.4-3.4
		c-1.4,1.2-3,2.1-4.7,2.7c-2.6,0.7-5.3,0.9-7.9,0.7c2.1,1.6,5.7,3.9,7.8,5.3c1.7-0.3,3.4-0.8,5-1.6c3.9,2.2,8.3,3.4,12.8,3.4
		c9.8,0,12.6-3.2,12.6-3.2s2.9,3.2,14.4,3.2c4.6,0.1,9.2-0.9,13.2-3.1c5.8,2.1,11.9,3.1,18.1,3.1c6.4,0,12.7-1.6,18.4-4.5
		c17.9-11.8,27.9-29.2,27.9-49.2c0-35.2-35.5-63.7-79.4-63.7c-24.7,0-46.8,9-61.3,23.2l0.2,0.2C112.2,172.5,131.9,165,153.7,165"/>
	<path id="path96" class="st2" d="M193.4,283.1c-12.3,1-18.9-2.4-18.9-2.4s-0.8,2.3-13.1,2.4c-12.3,0.2-14.5-2.4-14.5-2.4
		s-3.4,2.9-16.6,2.8c12.4,4.2,25.5,5.8,38.6,4.8C177.2,287.4,185.4,285.7,193.4,283.1"/>
	<path id="polyline102" class="st3" d="M165.7,207.6l0.2-0.3L165.7,207.6"/>
	<path id="path106" class="st4" d="M177.4,254.6c-0.2-1.5-0.2-3,0-4.5l0.6,0.3c3.4,1.1,13.7-0.8,14,3.2v2.6
		C187.2,255.4,182.3,254.8,177.4,254.6 M181.8,208.3c1.5,0,3-0.1,4.5-0.3c-0.5,0.3-0.9,0.7-1.3,1.1c-1.3,1.5,0.5,1.9,4.2,1.8
		c1,0-0.5,1.8-1.9,3.6C183.3,211.8,180.2,208.3,181.8,208.3 M207.8,241.3c-1.9-0.8-3.7-2-5.2-3.4c-0.2-0.2-1-0.8,0.3-0.5
		c1.9,0.5,9.4,0.2,9-5.2c0-0.3-2.3,0.5-4.4-0.2c-1.9-0.7-3.6-2-4.7-3.7c-0.6-1.3,0.5-1.5,3.1-2.1c2.3-0.6,3.9-3.6,3.2-3.6
		c-6.9-1.8-4-4.7-7.1-6.9c-1-0.7-1.9-1.4-2.7-2.3c0.3-1.1,4,0.6,5-1.6s-4-0.6-7.7-7.4c-2.1-3.9-1.6-11.6-3.2-11.1s-1,6-2.7,9.5
		c-0.5,1-1.1,1.9-1.8,2.7c-2.6-1.4-4.8-1-7.9-5c-1.6-2.3,4.8,2.1,5.6-0.6c0.2-0.5-6.6-3.7-8.2-6.9s-3.6-9.8-4.2-9.8s-1.6,5-2.7,8.6
		c-1,3.1-2.8,6-5.2,8.2c-2.3,2.4-6.8,3.7-6.3,4.8c1,2.3,5.8-1.6,5.3,2.4v0.6c-0.3,1.5-1.8,4.7-7.3,6c-5.8,1.5,4.2,4.2,5.5,3.2
		c0.7,0.2-1.4,6.3-3.9,8.2c-3.4,2.6-6.3,1.4-5.3,3.7c0.6,1.6,2.4,3.2,8.6,2.7c1.6-0.2,1.3-0.3-0.7,1.8c-3.2,3.7-9.5,6.8-11.8,7.6
		c-0.8,0.3-0.8,0.5-0.8,1.1s1,1.1,1.5,1.6c4.7,4.5,13.2,3.9,17.9,3.9h3.6v6.5c-14.2-0.8-29.8-0.8-43.9-2.9v-2.8c0,0,0-4.4,2.3-4.4
		c2.3,0,4.2-0.2,6.9-0.2c6.9,0,13.7-8.4,10-8.2c-3.7,0.2-6.9-3.2-5.3-3.5c2.4-0.5,7.1-2.7,2.9-3.6c-4.2-0.8-11.3-6.5-11.3-6.5
		s5.2,1,7.4-2.1c0.3-0.5-3.9-2.3-6-4.5c-1.1-1.3-2.1-2.7-2.9-4.2l2.8-0.6c1.8-0.5,2.9-1.6,2.7-2.1c-2-1.1-3.8-2.4-5.5-3.9
		c-5.3-6-6.3-18.3-7.4-18.1s-1.1,6.4-3.4,11.3c-6.3,13.2-10.7,8.7-9.7,11s4.8,1.9,5.3,3.1c0.2,0.3-2.1,8.7-9.3,11.6
		c-5.5,2.1,6.3,4.7,7.4,3.7c1.6,0.5-2.6,2.4-4.5,5.2c-2.7,4-8.7,4-6.9,6c7.1,7.6,20.8,1.6,20.8,10.5v1.6c-10.7-1.9-20-5.3-26.6-11.3
		c-1.6-1.7-2.9-3.6-3.7-5.8c-1.1-3.1-1.6-6.4-1.5-9.7c0-27.9,28.9-50.5,64.5-50.5c6.5,0,13,0.8,19.4,2.3v-0.2
		c-8.1-2.5-16.4-3.7-24.8-3.8c-37.8,0-68.3,24.7-68.3,55c0,15.6,8.4,29,18.6,39.2c1.9,0.5,3.9,0.7,5.8,0.6c11.9-0.2,12.9-4,12.9-4
		s1.8,3.4,12.6,3.2c11.3,0,12.6-3.1,12.6-3.1s1.6,3.1,14.2,3.1s13.6-3.2,13.6-3.1c0,0.2,0.3,2.6,12.1,3.1c10,0.3,11.8-3.1,11.8-3.1
		s1.8,2.6,7.1,3.1c1.3,0.2,2.6,0,3.7-0.6c1.4-0.8,2.1-1.9,1.6-2.4c-4.3-3.1-9.3-5.1-14.5-6.1c-0.1-1.7,0.1-3.3,0.3-5
		c0.6-1.9,10.5,1.9,16.9-8.4c1.4-2.3-2.4-0.6-5.6-2.1"/>
</g>
</svg>
