<?xml version="1.0" encoding="UTF-8" standalone="no"?>
<!-- Created with Inkscape (http://www.inkscape.org/) -->

<svg
   xmlns:dc="http://purl.org/dc/elements/1.1/"
   xmlns:cc="http://creativecommons.org/ns#"
   xmlns:rdf="http://www.w3.org/1999/02/22-rdf-syntax-ns#"
   xmlns:svg="http://www.w3.org/2000/svg"
   xmlns="http://www.w3.org/2000/svg"
   xmlns:sodipodi="http://sodipodi.sourceforge.net/DTD/sodipodi-0.dtd"
   xmlns:inkscape="http://www.inkscape.org/namespaces/inkscape"
   width="283.99997"
   height="283.99997"
   viewBox="0 0 75.141661 75.141661"
   version="1.1"
   id="svg61210"
   inkscape:version="0.92.0 r15299"
   sodipodi:docname="des moines buccaneers.svg">
  <defs
     id="defs61204" />
  <sodipodi:namedview
     id="base"
     pagecolor="#ffffff"
     bordercolor="#666666"
     borderopacity="1.0"
     inkscape:pageopacity="0.0"
     inkscape:pageshadow="2"
     inkscape:zoom="1.8900709"
     inkscape:cx="141"
     inkscape:cy="141"
     inkscape:document-units="mm"
     inkscape:current-layer="layer1"
     showgrid="false"
     fit-margin-top="0"
     fit-margin-left="0"
     fit-margin-right="0"
     fit-margin-bottom="0"
     units="px"
     inkscape:window-width="1280"
     inkscape:window-height="744"
     inkscape:window-x="-4"
     inkscape:window-y="-4"
     inkscape:window-maximized="1" />
  <metadata
     id="metadata61207">
    <rdf:RDF>
      <cc:Work
         rdf:about="">
        <dc:format>image/svg+xml</dc:format>
        <dc:type
           rdf:resource="http://purl.org/dc/dcmitype/StillImage" />
        <dc:title></dc:title>
      </cc:Work>
    </rdf:RDF>
  </metadata>
  <g
     inkscape:label="Layer 1"
     inkscape:groupmode="layer"
     id="layer1"
     transform="translate(24.833035,-110.99789)">
    <g
       id="g61318"
       transform="matrix(0.26458333,0,0,0.26458333,-25.097622,110.70684)">
	<g
   id="layer3_5_">
		<path
   d="m 284,143.1 c 0,77.9 -63.1,141 -141,141 -77.9,0 -141,-63.1 -141,-141 0,0 0,0 0,0 0,-77.9 63.1,-141 141,-141 77.8,0 141,63.1 141,141 0,0 0,0 0,0 z"
   class="st0"
   id="path4315_5_"
   inkscape:connector-curvature="0"
   style="fill:#da1a32" />

	</g>

	<g
   id="layer4_15_">
		<path
   d="m 277.4,143.1 c 0,74.2 -60.2,134.4 -134.4,134.4 -74.2,0 -134.4,-60.1 -134.4,-134.4 0,0 0,0 0,0 C 8.6,68.9 68.8,8.7 143,8.7 c 74.2,0 134.4,60.1 134.4,134.4 0,0 0,0 0,0 z"
   class="st1"
   id="path4318_4_"
   inkscape:connector-curvature="0"
   style="fill:#1e439b" />

	</g>

	<g
   id="layer7_5_">
		<path
   d="m 236.9,143.1 c 0,51.9 -42.1,93.9 -93.9,93.9 -51.8,0 -93.9,-42 -93.9,-93.9 0,-51.9 42,-93.9 93.9,-93.9 51.9,0 93.9,42 93.9,93.9 z"
   class="st2"
   id="path3796_5_"
   inkscape:connector-curvature="0"
   style="fill:#ffffff" />

	</g>

	<g
   id="layer6_5_">
		<g
   id="path3789_5_">
			<path
   id="path61220"
   d="m 143,240.3 c -53.6,0 -97.2,-43.6 -97.2,-97.1 0,-53.6 43.6,-97.2 97.1,-97.2 0,0 0,0 0,0 53.6,0 97.2,43.6 97.2,97.1 v 0 c 0,26 -10.1,50.4 -28.4,68.7 -18.3,18.3 -42.7,28.5 -68.7,28.5 0,0 0,0 0,0 z m 0,-188 c 0,0 0,0 0,0 -50.1,0 -90.8,40.7 -90.8,90.8 0,50.1 40.7,90.8 90.8,90.8 0,0 0,0 0,0 50,0 90.7,-40.7 90.7,-90.8 v 0 C 233.7,93 193,52.3 143,52.3 Z"
   class="st0"
   inkscape:connector-curvature="0"
   style="fill:#da1a32" />

		</g>

	</g>

	<path
   id="path61224"
   d="m 201.5,87.9 c -1,-1.6 -2.4,-2.9 -3.8,-4.2 -0.5,-0.4 -0.7,-0.4 -1.2,0 -1.1,0.9 -2.3,1.6 -3.6,2 -2.1,0.7 -2.1,0.7 -1.7,3 0,0.1 0,0.2 0,0.4 -0.4,-0.3 -0.8,-0.5 -1.2,-0.8 -3.9,-2.8 -7.5,-6 -11.2,-9.1 -6.6,-5.6 -13.9,-9.9 -22.7,-11.1 -6.3,-0.8 -12.5,-0.8 -18.7,0.6 -10.9,2.6 -20.5,7.9 -28.9,15.1 -4.4,3.8 -8.9,7.6 -13.7,10.9 -6,4 -12.4,6.9 -19.8,7.4 -0.6,0 -0.7,0.4 -1,0.8 -2.1,3.3 -4.1,6.7 -6.2,10 -0.5,0.8 -0.5,1.5 0.3,2.2 9,8.4 18.1,16.8 27.1,25.2 1,0.9 2.1,1.7 2.1,3.3 0,0.3 0.2,0.7 0.4,1 1.1,1.8 2.3,3.4 4.7,3.5 0.2,0 0.5,0.1 0.7,-0.2 0.1,-0.3 -0.1,-0.5 -0.2,-0.6 -0.6,-0.8 -1.4,-1.4 -2.1,-2.1 -1,-1.1 -1,-1.8 -0.1,-2.9 5.9,-6.8 12.7,-12.3 20.8,-16.4 8.8,-4.4 18.1,-6.8 27.9,-7.4 7.8,-0.5 15.5,0.3 23.1,2.1 0.4,0.1 1,0.1 1.3,0.6 1,-0.1 1.9,-0.3 3.2,-0.4 -0.5,0.4 -0.7,0.6 -1,0.8 0.9,0.3 1.7,0.6 2.6,0.9 0.2,-0.1 0.4,-0.1 0.6,-0.2 1.9,-2.8 3.8,-5.5 5.6,-8.3 5.4,-8.3 10.8,-16.7 17,-24.5 0.1,-0.7 0,-1.1 -0.3,-1.6 z"
   class="st0"
   inkscape:connector-curvature="0"
   style="fill:#da1a32" />

	<path
   id="path61226"
   d="m 154,74.7 c 1.4,-0.9 2.6,-0.9 3.8,0.2 2.1,1.9 2.3,6.1 0.3,8.1 -1.2,1.2 -3,1.4 -4.2,0.3 -1.2,-1 -2.1,-2.3 -2,-4.3 0,-1.6 0.5,-3.2 2.1,-4.3 z m 19.3,28.4 c -0.1,0.3 -0.1,0.6 -0.1,0.9 -0.1,0.5 -0.1,0.8 -0.2,1.1 -0.2,0.8 -0.5,0.8 -1.9,0.8 -2.3,0.1 -4.6,0.4 -6.9,0 -1.7,-0.3 -3.2,-1 -4.4,-2.3 -0.9,-1 -1.9,-1.8 -2.8,-2.7 -0.5,-0.5 -0.7,-0.4 -1.1,0.1 -2.1,2.5 -4.8,4.2 -8.1,4.8 -1.8,0.3 -3.6,-0.1 -5.4,-0.2 -0.2,0 -0.5,-0.1 -0.7,-0.1 -0.6,-0.1 -1.4,0.2 -1.7,-0.4 -0.4,-0.8 -0.3,-1.8 -0.1,-2.7 0.2,-0.7 0.7,-0.7 1.3,-0.6 2.4,0.3 4.9,0.6 7.3,0.4 2.4,-0.3 5.4,-2.8 6.1,-5.2 0.2,-0.9 0.1,-1.7 -0.6,-2.5 -3.9,-4.5 -7.7,-9 -11.6,-13.4 -0.5,-0.6 -0.6,-1 0.1,-1.4 0.2,-0.1 0.4,-0.3 0.5,-0.5 0.5,-0.6 0.8,-0.5 1.3,0 3.7,3.9 7.5,7.8 11.3,11.7 0.7,0.7 0.9,0.6 1.4,-0.2 2.4,-3.8 4.8,-7.5 7.2,-11.2 0.4,-0.6 0.7,-0.7 1.3,-0.3 0.3,0.2 0.6,0.3 0.9,0.5 1.1,0.9 1.4,1.3 0.4,2.5 -3,3.9 -5.6,8.1 -8.1,12.2 -0.4,0.6 -0.4,1.1 0.1,1.6 1.8,1.8 3.7,3.5 5.9,4.7 2.2,1.2 4.5,1.6 6.9,1 0.2,-0.1 0.5,-0.1 0.7,-0.1 0.7,0.2 1.2,0.5 1,1.5 z"
   class="st3"
   inkscape:connector-curvature="0"
   style="fill:none" />

	<path
   id="path61228"
   d="m 173.6,121.1 c -1.4,0.2 -2.9,0.4 -4.3,0.7 -6,1.2 -12,2.1 -17.9,3.7 -10.5,2.7 -20,7.7 -29.1,13.6 -5.4,3.5 -10.6,7.3 -15.7,11.1 -0.5,0.4 -0.9,0.6 -1.3,-0.1 -0.7,-1.3 -1,-1.3 -2.3,-0.9 -2.5,0.9 -3.9,2.6 -4.7,5 -0.8,2.3 -1,4.7 -1.2,7 -0.3,4.9 0.9,9.3 4.6,12.7 1,0.9 2,1.8 3,2.6 1.4,1.1 2.9,2.3 3.9,4.1 1,1.8 5,1.5 6.8,-0.2 -0.8,-0.7 -1.6,-1.5 -2.7,-0.5 -0.3,0.3 -0.8,0.2 -1.2,0.1 -0.9,-0.2 -1.6,-0.6 -2.3,-1.1 -3,-2.1 -5.3,-4.8 -7.3,-7.7 -1.7,-2.4 -3,-5 -2.8,-8.2 0.2,-2.3 -0.1,-4.6 0.8,-6.8 1.6,-3.8 5.6,-4.7 8.5,-1.9 0.5,0.5 1,1 1.5,1.6 1.9,2.2 2.9,4.8 4.2,7.4 1.8,3.7 3.4,7.4 2.5,11.6 -0.1,0.5 0.2,0.7 0.6,0.9 2.6,1.4 4.1,3.6 4.8,6.3 0.6,2.5 0.5,5.1 0.1,7.6 -0.2,1.2 -0.9,2.4 -0.8,3.6 0.1,1.2 1,2.3 1.4,3.5 1.4,3.7 2.4,7.6 4,11.2 2,4.5 4.8,8.2 9.7,9.9 2.6,0.9 5.4,1.2 8.2,1.3 7,0 14,-0.5 21,-0.9 5.3,-0.3 10.6,-0.6 15.8,-1.4 0.7,-0.1 0.9,-0.2 0.7,-1 -1,-4.3 -2,-8.6 -3,-12.9 -0.3,-1.3 -0.8,-2.5 -0.3,-3.9 1.8,-5.1 2,-10.3 0.3,-15.5 -0.2,-0.5 0.2,-0.6 0.5,-0.8 1.7,-0.9 3.3,-1.7 5,-2.6 1.4,-0.7 2.7,-1.5 4.2,-2.3 -0.3,-0.2 -0.4,-0.2 -0.5,-0.3 -1.2,-0.5 -2.4,-1 -3.4,-1.8 -0.6,-0.5 -0.7,-0.9 -0.2,-1.5 1.2,-1.3 2.3,-2.8 3.4,-4.2 0.8,-1 1.8,-2 2.3,-3.2 0.4,-0.8 0.1,-1.5 -0.6,-2.1 -0.8,-0.6 -1.1,0.2 -1.5,0.5 -1.9,1.7 -3.3,3.8 -5.1,5.6 -0.6,0.6 -1,0.8 -1.8,0.2 -3.3,-2.4 -6.9,-4.5 -10.7,-6.1 -5.5,-2.4 -11.3,-3.8 -17.4,-3.1 -0.6,0.1 -0.6,-0.2 -0.6,-0.6 -0.3,-4.4 3.2,-7.7 7.7,-7.1 1,0.1 1.9,0.2 3.2,0.4 -3.5,-2 -7.8,-3.2 -10.6,-0.7 1.4,-6.2 0.4,-11.9 -3.5,-17 0.2,-0.1 0.5,-0.3 0.7,-0.4 4.4,-2.5 8.8,-5.1 12.8,-8.3 1.4,-1.1 2.7,-2.3 4.3,-3.1 2.8,-1.3 5.6,-2.6 8.4,-3.9 0.3,-0.2 0.5,-0.4 1,-0.8 -1.2,0.4 -2.2,0.6 -3.1,0.7 z m -55.3,24.7 c 1.1,-0.9 2.3,-1.5 3.5,-2.2 0.3,-0.2 0.7,-0.3 0.9,-0.7 0,0 0,0 0,0 v 0 c 0.1,0 0.1,0 0.2,0 0,0.1 -0.1,0.1 -0.1,0.1 0,0 0,-0.1 -0.1,-0.1 v 0 c 0,0.1 0.1,0.2 0.1,0.3 -1.2,2.7 -2.8,5 -5.8,6 -0.1,0 -0.3,0.1 -0.4,0.1 -0.1,0 -0.1,0 -0.3,-0.1 0.3,-1.4 1,-2.5 2,-3.4 z m 33,12.6 c 0.2,-0.3 0.3,-0.7 0.7,-0.9 -0.1,1.5 -0.2,2.9 -0.1,4.4 0,0.4 -0.2,0.6 -0.5,0.7 -7.4,2.1 -14,5.8 -20.8,9.3 -1.3,0.7 -2.6,1.7 -4.4,0.8 2,3.7 6.3,6.3 10.3,5.4 3.8,-0.9 7.5,-1.7 11.3,-2.6 1.7,-0.4 3.3,-0.1 5,0.1 6.8,0.6 13.4,2.2 19.7,4.8 0.3,0.1 0.7,0.1 0.9,0.6 -2.1,0.8 -4.2,0.7 -6.3,0.3 -2.6,-0.6 -5,-1.7 -7.6,-2 -4.3,-0.5 -8.6,-1.3 -13,-0.5 -1.6,0.3 -3,1 -4.1,2.2 -0.8,0.9 -1,1.9 -0.7,3 0.6,2.3 2.3,3.8 4.8,3.9 3.3,0.2 6.4,-0.6 9.5,-1.3 3.7,-0.9 7.4,-2 11.3,-2.3 1.7,-0.1 3.5,-0.2 5.2,0.1 1.8,0.4 3,1.6 4,3.1 2.1,3.3 1.9,8.2 -0.5,10.9 -0.4,0.4 -0.8,0.8 -1.5,0.8 -9.1,0.5 -18.2,1.1 -27.4,1.5 -3.4,0.2 -6.8,0.2 -10.2,0.1 -1.9,0 -3.3,-0.8 -4.5,-2.2 -1.8,-2.1 -2.9,-4.7 -3.8,-7.3 -4.3,-12.7 -8.2,-25.4 -12,-38.3 -0.1,-0.2 -0.1,-0.5 -0.2,-0.8 2.2,0.1 4.1,-0.3 5.7,-2 0.3,1.9 0.6,3.6 1.4,5.2 2.4,5.3 6.7,8 12.3,8.9 3.1,0.5 6.1,0.5 9.1,-0.6 2.7,-1.1 4.9,-2.8 6.4,-5.3 z m 0.7,-25.2 c -1,0.7 -2.1,1.3 -3.2,2 -0.8,0.5 -1.5,0.6 -2.3,0.1 -0.6,-0.3 -1.2,-0.6 -1.8,-1 1.6,-1.2 8.7,-4.2 11.6,-4.9 -1.3,1.6 -2.8,2.7 -4.3,3.8 z"
   class="st1"
   inkscape:connector-curvature="0"
   style="fill:#1e439b" />

	<path
   id="path61230"
   d="m 178.1,122.7 c -3.8,3 -7.5,6 -11.3,9 -3.2,2.5 -6.4,5.1 -9.6,7.6 -1,0.8 -0.9,1.2 0.1,1.7 3.6,1.9 6.9,4.1 10.2,6.4 5.9,4.3 11.3,9.1 16.9,13.6 0.3,0.2 0.5,0.6 0.9,0.5 0,-0.1 0.1,-0.2 0,-0.2 -0.3,-0.4 -0.6,-0.8 -1,-1.2 -3,-3.6 -6.1,-7.2 -8.6,-11.3 -0.8,-1.3 -1.1,-2.8 -0.7,-4.3 0.2,-1 0.5,-2.1 0.8,-3.1 0.3,-1.2 0.7,-2.5 0.5,-3.8 -0.5,0 -0.9,0.4 -1.3,0.6 -3.1,1.8 -6.3,3.2 -9.8,3.9 -0.6,0.1 -1.1,0.3 -1.7,0.1 -0.2,-0.1 -0.5,-0.2 -0.5,-0.5 0,-0.2 0.2,-0.3 0.4,-0.4 0.8,-0.5 1.7,-1.1 2.5,-1.6 5.2,-3.3 10.4,-6.7 15.7,-10 0.7,-0.4 0.9,-0.8 0.5,-1.6 -0.5,-0.8 -0.9,-1.8 -1.4,-2.7 -0.6,-1.1 -1,-2.4 -1.9,-3.3 -0.2,0.1 -0.4,0.1 -0.6,0.2 0.1,0.2 0,0.3 -0.1,0.4 z"
   class="st1"
   inkscape:connector-curvature="0"
   style="fill:#1e439b" />

	<path
   id="path61232"
   d="m 121.3,183.4 c -0.1,-0.6 -0.3,-1.3 -0.5,-1.9 -1.3,-3.5 -4.3,-5.6 -8,-5.7 -0.5,0 -0.7,0.2 -0.7,0.6 0,0.4 0,0.8 -0.1,1.1 0,0.6 0.2,0.8 0.8,0.8 2.1,0.1 3.6,1.2 4.4,3.1 1.8,4.2 1.4,8.3 -1.1,12.2 -1.6,2.5 -5.9,2.5 -7.8,1 -3.9,-3 -4.2,-9.4 -2.3,-13.2 0.3,-0.6 1.2,-1 0.9,-1.6 -0.3,-0.6 -1,-1 -1.5,-1.5 -0.1,-0.1 -0.2,-0.1 -0.2,-0.2 -1,-0.9 -1,-0.9 -1.7,0.2 -1.9,3.4 -2.3,7.1 -1.7,10.9 0.4,2.5 1.1,4.8 3.1,6.5 4.2,3.7 10.2,3.2 14.3,-1.1 0.8,-0.8 1.6,-1.6 1.8,-2.7 0.4,-1.8 0.7,-3.6 0.7,-5.7 -0.1,-0.8 -0.3,-1.8 -0.4,-2.8 z"
   class="st1"
   inkscape:connector-curvature="0"
   style="fill:#1e439b" />

	<path
   id="path61234"
   d="m 106.1,144.9 c 0.4,0.1 0.6,-0.2 0.9,-0.4 5.5,-4.2 11.2,-8.2 16.7,-12.3 1.7,-1.3 3.4,-2.6 5.2,-3.8 0.2,-0.2 0.5,-0.4 0.3,-0.7 -0.1,-0.3 -0.4,-0.1 -0.7,0 -1.1,0.2 -2.1,0.5 -3.1,0.9 -4.5,1.6 -8.3,4.5 -11.8,7.7 -2.6,2.4 -5.6,4.3 -9.1,5.1 -0.6,0.2 -1.7,-0.1 -1.8,0.6 -0.2,0.9 0.9,1.2 1.4,1.8 0.4,0.5 1.1,1 2,1.1 z"
   class="st1"
   inkscape:connector-curvature="0"
   style="fill:#1e439b" />

	<path
   id="path61236"
   d="m 109.2,162.5 c -1,-1.2 -2.2,-2 -3.6,-2.5 -0.9,-0.3 -1.7,0 -2.3,0.6 -0.5,0.5 -0.5,1.2 -0.1,1.7 0.4,0.6 0.9,0.2 1.2,-0.1 1,-0.8 2,-0.6 2.9,0 0.9,0.5 1.5,1.3 2,2.2 0.6,1.1 1,2.3 1.5,3.4 0.4,1 0.8,2 1.7,3 -0.5,-3.2 -1.4,-6 -3.3,-8.3 z"
   class="st1"
   inkscape:connector-curvature="0"
   style="fill:#1e439b" />

	<path
   id="path61238"
   d="m 172.2,101.8 c -0.2,0 -0.5,0 -0.7,0.1 -2.4,0.6 -4.7,0.1 -6.9,-1 -2.2,-1.2 -4.1,-2.9 -5.9,-4.7 -0.5,-0.5 -0.5,-1 -0.1,-1.6 2.6,-4.2 5.2,-8.3 8.1,-12.2 0.9,-1.2 0.6,-1.6 -0.4,-2.5 -0.3,-0.2 -0.6,-0.3 -0.9,-0.5 -0.6,-0.4 -0.9,-0.3 -1.3,0.3 -2.4,3.8 -4.8,7.5 -7.2,11.2 -0.5,0.7 -0.7,0.9 -1.4,0.2 -3.7,-3.9 -7.5,-7.8 -11.3,-11.7 -0.5,-0.5 -0.8,-0.6 -1.3,0 -0.2,0.2 -0.3,0.4 -0.5,0.5 -0.7,0.4 -0.6,0.8 -0.1,1.4 3.9,4.5 7.7,9 11.6,13.4 0.7,0.8 0.8,1.6 0.6,2.5 -0.6,2.4 -3.6,4.9 -6.1,5.2 -2.5,0.3 -4.9,-0.1 -7.3,-0.4 -0.6,-0.1 -1.1,-0.1 -1.3,0.6 -0.2,0.9 -0.3,1.8 0.1,2.7 0.3,0.6 1.1,0.3 1.7,0.4 0.2,0 0.5,0.1 0.7,0.1 1.8,0.2 3.6,0.5 5.4,0.2 3.3,-0.6 6,-2.3 8.1,-4.8 0.4,-0.5 0.6,-0.6 1.1,-0.1 0.9,0.9 1.9,1.8 2.8,2.7 1.2,1.3 2.7,2 4.4,2.3 2.3,0.4 4.6,0 6.9,0 1.4,0 1.8,0 1.9,-0.8 0.1,-0.3 0.1,-0.6 0.2,-1.1 0,-0.3 0.1,-0.6 0.1,-0.9 0.3,-1.2 -0.2,-1.5 -1,-1.5 z"
   class="st2"
   inkscape:connector-curvature="0"
   style="fill:#ffffff" />

	<path
   id="path61240"
   d="m 153.9,83.3 c 1.3,1 3.1,0.9 4.2,-0.3 2,-2 1.8,-6.2 -0.3,-8.1 -1.2,-1.1 -2.5,-1.1 -3.8,-0.2 -1.6,1.1 -2.1,2.7 -2.1,4.3 -0.1,2 0.7,3.3 2,4.3 z"
   class="st2"
   inkscape:connector-curvature="0"
   style="fill:#ffffff" />

	<path
   id="path61242"
   d="m 135.8,164.2 c -5.6,-0.9 -9.9,-3.6 -12.3,-8.9 -0.7,-1.6 -1.1,-3.4 -1.4,-5.2 -1.6,1.7 -3.5,2.1 -5.7,2 0.1,0.3 0.1,0.6 0.2,0.8 3.8,12.8 7.7,25.6 12,38.3 0.9,2.6 1.9,5.2 3.8,7.3 1.2,1.4 2.6,2.2 4.5,2.2 3.4,0.1 6.8,0.1 10.2,-0.1 9.1,-0.5 18.2,-1 27.4,-1.5 0.7,0 1.1,-0.4 1.5,-0.8 2.4,-2.7 2.6,-7.6 0.5,-10.9 -1,-1.5 -2.2,-2.7 -4,-3.1 -1.7,-0.4 -3.4,-0.3 -5.2,-0.1 -3.8,0.3 -7.5,1.4 -11.3,2.3 -3.1,0.8 -6.2,1.6 -9.5,1.3 -2.4,-0.2 -4.2,-1.6 -4.8,-3.9 -0.3,-1.1 -0.1,-2.1 0.7,-3 1.1,-1.2 2.5,-2 4.1,-2.2 4.4,-0.8 8.7,0 13,0.5 2.6,0.3 5,1.5 7.6,2 2.1,0.5 4.2,0.6 6.3,-0.3 -0.2,-0.5 -0.6,-0.5 -0.9,-0.6 -6.3,-2.6 -12.9,-4.2 -19.7,-4.8 -1.6,-0.1 -3.3,-0.5 -5,-0.1 -3.8,0.9 -7.5,1.8 -11.3,2.6 -3.9,0.9 -8.3,-1.8 -10.3,-5.4 1.8,0.9 3,-0.1 4.4,-0.8 6.8,-3.4 13.4,-7.2 20.8,-9.3 0.4,-0.1 0.5,-0.3 0.5,-0.7 -0.1,-1.4 0,-2.9 0.1,-4.4 -0.4,0.2 -0.5,0.6 -0.7,0.9 -1.5,2.5 -3.7,4.2 -6.4,5.2 -3,1.2 -6,1.2 -9.1,0.7 z m 9.1,26 c 0.2,-0.3 0.5,0 0.6,0 1.9,0.7 3.9,1.1 5.9,1 4.1,0 7.9,-1.3 11.6,-2.9 0.7,-0.3 1.3,-0.8 2.2,-0.6 -1.2,0.6 -2.3,1.3 -3.5,1.9 -3.8,2 -7.8,3.5 -12,4.3 -1,0.2 -1.9,0 -2.7,-0.8 -0.7,-0.7 -1.3,-1.5 -1.9,-2.2 -0.1,-0.2 -0.4,-0.4 -0.2,-0.7 z"
   class="st2"
   inkscape:connector-curvature="0"
   style="fill:#ffffff" />

	<path
   id="path61244"
   d="m 146.5,135.3 c 0.8,0.5 1.5,0.4 2.3,-0.1 1,-0.7 2.1,-1.3 3.2,-2 1.6,-1.1 3,-2.2 4.3,-3.7 -2.9,0.7 -10,3.7 -11.6,4.9 0.7,0.3 1.3,0.6 1.8,0.9 z"
   class="st2"
   inkscape:connector-curvature="0"
   style="fill:#ffffff" />

	<path
   id="path61246"
   d="m 117,149.1 c 3,-1 4.6,-3.3 5.8,-6 0,-0.1 -0.1,-0.2 -0.1,-0.3 v 0 c 0,0 0,0.1 0.1,0.1 0,0 0.1,0 0.1,-0.1 -0.1,0 -0.1,0 -0.2,0 v 0 c 0,0 0,0 0,0 -0.2,0.4 -0.6,0.5 -0.9,0.7 -1.2,0.7 -2.4,1.3 -3.5,2.2 -1,0.9 -1.7,2 -2,3.4 0.1,0 0.2,0.1 0.3,0.1 0.2,0 0.3,0 0.4,-0.1 z"
   class="st2"
   inkscape:connector-curvature="0"
   style="fill:#ffffff" />

	<path
   id="path61248"
   d="m 147,193.1 c 0.7,0.8 1.6,1 2.7,0.8 4.3,-0.7 8.2,-2.3 12,-4.3 1.2,-0.6 2.3,-1.3 3.5,-1.9 -0.9,-0.1 -1.5,0.3 -2.2,0.6 -3.7,1.6 -7.5,2.9 -11.6,2.9 -2,0 -4,-0.3 -5.9,-1 -0.2,-0.1 -0.4,-0.3 -0.6,0 -0.3,0.3 0,0.5 0.2,0.7 0.7,0.7 1.3,1.5 1.9,2.2 z"
   class="st1"
   inkscape:connector-curvature="0"
   style="fill:#1e439b" />

	<g
   id="g61254">
		<path
   id="path61250"
   d="m 186.6,201.2 c 0,2.7 1.9,4.6 4.6,4.7 2.6,0.1 4.7,-2 4.7,-4.7 0,-2.6 -2,-4.6 -4.6,-4.6 -2.7,0 -4.7,1.9 -4.7,4.6 z m 4.6,-3.8 c 2,0 3.6,1.6 3.6,3.7 0,2.2 -1.5,3.8 -3.5,3.8 -2.1,0 -3.6,-1.5 -3.6,-3.8 -0.1,-2 1.5,-3.6 3.5,-3.7 z"
   class="st1"
   inkscape:connector-curvature="0"
   style="fill:#1e439b" />

		<path
   id="path61252"
   d="m 192.3,202.1 c -0.2,-0.3 -0.3,-0.4 0.2,-0.6 0.8,-0.2 0.9,-0.8 0.8,-1.6 -0.1,-0.8 -0.6,-1.1 -1.3,-1.2 -0.7,-0.1 -1.5,0 -2.2,-0.1 -0.4,0 -0.4,0.2 -0.4,0.5 0,1.4 0,2.8 0,4.3 0,0.3 0.1,0.5 0.5,0.5 0.4,0 0.5,-0.1 0.5,-0.5 0,-0.4 0,-0.8 0,-1.2 0,-0.2 -0.1,-0.5 0.2,-0.5 0.3,0 0.5,0 0.6,0.3 0.3,0.5 0.6,0.9 0.8,1.4 0.3,0.6 0.7,0.7 1.3,0.5 -0.3,-0.7 -0.6,-1.2 -1,-1.8 z m -0.5,-1.2 c -0.2,0 -0.4,0 -0.6,0 -0.5,0.1 -0.9,0 -0.9,-0.7 0,-0.7 0.3,-0.7 0.9,-0.7 0.2,0 0.4,0 0.6,0 0.4,0 0.6,0.2 0.6,0.6 0,0.5 -0.2,0.7 -0.6,0.8 z"
   class="st1"
   inkscape:connector-curvature="0"
   style="fill:#1e439b" />

	</g>

	<g
   id="layer4_14_">
		<g
   id="g61274">
			<path
   id="path61256"
   d="M 42.7,65.8 47,60.9 c 4.3,-4.9 10.7,-5.5 15.4,-1.3 4.7,4.2 4.9,10.5 0.5,15.5 L 58.7,80 Z M 60,72.7 c 3.1,-3.5 2.5,-7 -0.5,-9.7 -3,-2.6 -6.5,-2.9 -9.7,0.7 l -1.3,1.5 10.2,9 z"
   class="st2"
   inkscape:connector-curvature="0"
   style="fill:#ffffff" />

			<path
   id="path61258"
   d="m 61.8,46.2 11.3,-8.5 2.3,3.1 -7.8,5.8 2.9,3.9 6.9,-5.1 2.3,3 -6.9,5.1 3,4 8.1,-6.1 2.3,3.1 -11.6,8.7 z"
   class="st2"
   inkscape:connector-curvature="0"
   style="fill:#ffffff" />

			<path
   id="path61260"
   d="m 87.9,48.5 2.3,-3.4 c 1.5,1 3.1,1.4 5.1,0.5 1.6,-0.8 2.3,-2.1 1.7,-3.3 -0.7,-1.4 -2,-1.3 -4.2,-1.2 l -1.2,0.1 c -3.4,0.2 -6.1,-0.4 -7.6,-3.6 -1.4,-3 -0.3,-6.3 3.2,-8 2.5,-1.2 4.7,-1.2 7.1,0.4 l -2.1,3.5 c -1.3,-0.9 -2.2,-1 -3.4,-0.4 -1.2,0.6 -1.5,1.7 -1.1,2.6 0.6,1.2 1.5,1.3 3.6,1.2 l 1.2,-0.1 c 4.1,-0.2 6.7,0.3 8.3,3.6 1.7,3.5 -0.1,6.9 -3.8,8.7 -3.7,1.7 -6.9,1.1 -9.1,-0.6 z"
   class="st2"
   inkscape:connector-curvature="0"
   style="fill:#ffffff" />

			<path
   id="path61262"
   d="m 114.1,19.4 h 0.3 l 12,9.9 8.6,-12.9 0.4,-0.1 3.1,21.3 -4.2,0.6 -1.1,-7.9 c -0.2,-1.4 -0.4,-3.7 -0.4,-3.7 0,0 -1,2 -1.8,3.3 l -3.5,5.3 -0.4,0.1 -4.9,-4.1 c -1.2,-1 -2.7,-2.7 -2.7,-2.7 0,0 0.5,2.2 0.7,3.7 l 1.1,7.9 -4.2,0.6 z"
   class="st2"
   inkscape:connector-curvature="0"
   style="fill:#ffffff" />

			<path
   id="path61264"
   d="m 144.6,27 c 0.7,-6.3 6,-10.4 12.1,-9.7 6.1,0.7 10.5,5.8 9.8,12.1 -0.7,6.3 -6,10.4 -12.1,9.7 -6.1,-0.7 -10.5,-5.9 -9.8,-12.1 z m 17.4,1.9 c 0.4,-4 -1.9,-7.3 -5.7,-7.7 -3.9,-0.4 -6.8,2.3 -7.2,6.3 -0.4,4 1.9,7.3 5.7,7.7 3.9,0.4 6.8,-2.4 7.2,-6.3 z"
   class="st2"
   inkscape:connector-curvature="0"
   style="fill:#ffffff" />

			<path
   id="path61266"
   d="m 176.8,21.4 4.2,1.2 -6,20.5 -4.2,-1.2 z"
   class="st2"
   inkscape:connector-curvature="0"
   style="fill:#ffffff" />

			<path
   id="path61268"
   d="m 191.3,38.8 c -0.5,-1.4 -1,-3.7 -1,-3.7 0,0 -0.8,2.2 -1.4,3.6 l -3.9,8 -3.7,-1.8 9.5,-19.3 0.4,0.2 5.2,13.8 c 0.5,1.3 1,3.7 1,3.7 0,0 0.8,-2.3 1.5,-3.6 l 3.9,-8 3.7,1.8 -9.5,19.3 -0.4,-0.2 z"
   class="st2"
   inkscape:connector-curvature="0"
   style="fill:#ffffff" />

			<path
   id="path61270"
   d="m 215.1,39.2 11.1,8.7 -2.4,3 -7.7,-6 -3,3.9 6.7,5.3 -2.3,3 -6.7,-5.3 -3.1,3.9 8,6.3 -2.4,3 -11.3,-9 z"
   class="st2"
   inkscape:connector-curvature="0"
   style="fill:#ffffff" />

			<path
   id="path61272"
   d="m 219.7,65 3.9,1.3 c -0.5,1.7 -0.6,3.4 0.9,5 1.2,1.4 2.6,1.6 3.6,0.8 1.1,-1 0.7,-2.2 0.1,-4.3 l -0.4,-1.1 c -1.1,-3.3 -1.2,-6 1.5,-8.3 2.5,-2.2 6,-1.9 8.6,1 1.8,2.1 2.4,4.2 1.5,7 l -3.9,-1.1 c 0.5,-1.5 0.4,-2.4 -0.5,-3.4 -0.8,-1 -2,-1 -2.8,-0.3 -1,0.9 -0.8,1.8 -0.2,3.8 l 0.4,1.1 c 1.3,3.9 1.4,6.5 -1.3,8.9 -3,2.6 -6.6,1.7 -9.4,-1.4 -2.8,-3.1 -3.1,-6.4 -2,-9 z"
   class="st2"
   inkscape:connector-curvature="0"
   style="fill:#ffffff" />

		</g>

	</g>

	<g
   id="layer4_13_">
		<g
   id="g61297">
			<path
   id="path61277"
   d="m 58.9,206.4 5.3,6.1 c 2.8,3.3 2.4,6.6 0,8.7 -1.6,1.4 -3.7,1.6 -5.4,0.4 1.2,2.3 1.1,4.6 -1.1,6.5 -2.6,2.3 -6.3,2.1 -9.2,-1.2 l -5.7,-6.5 z m -7.6,17.8 c 1,1.2 2.6,1.3 3.8,0.3 1.2,-1 1.2,-2.6 0.1,-4 l -2.5,-2.9 -4,3.5 z m 6.3,-6.6 c 1.2,1.4 2.4,1.5 3.5,0.6 1.1,-0.9 1.2,-2.1 0.1,-3.4 l -2.2,-2.6 -3.5,3 z"
   class="st2"
   inkscape:connector-curvature="0"
   style="fill:#ffffff" />

			<path
   id="path61279"
   d="m 62.9,230.9 8.4,-10.7 3.4,2.7 -8.3,10.5 c -1.9,2.4 -1.6,4.2 0.7,6 2.3,1.8 4,1.7 6,-0.8 l 8.3,-10.5 3.4,2.7 -8.4,10.7 c -3.3,4.2 -7.9,4 -11.7,1 -3.8,-3 -5.1,-7.4 -1.8,-11.6 z"
   class="st2"
   inkscape:connector-curvature="0"
   style="fill:#ffffff" />

			<path
   id="path61281"
   d="m 82.9,242.3 c 2.8,-5.6 9.2,-7.6 14.7,-4.9 3.5,1.7 5.3,4.2 5.7,7.7 l -4.1,0.6 C 99,243.8 98,242 95.8,240.9 c -3.5,-1.7 -7.1,-0.2 -8.9,3.4 -1.8,3.6 -0.8,7.4 2.7,9.2 2.5,1.2 4.4,0.7 6.3,-0.4 l 2,3.6 c -2.9,1.8 -6.4,2.1 -10.1,0.2 -5.4,-2.6 -7.7,-8.9 -4.9,-14.6 z"
   class="st2"
   inkscape:connector-curvature="0"
   style="fill:#ffffff" />

			<path
   id="path61283"
   d="m 104.6,252.6 c 1.6,-6.1 7.4,-9.3 13.3,-7.8 3.7,1 6.1,3 7.2,6.4 l -3.8,1.5 c -0.6,-1.8 -1.9,-3.4 -4.3,-4 -3.7,-1 -7,1.3 -8,5.1 -1,3.9 0.8,7.4 4.5,8.4 2.7,0.7 4.5,-0.2 6.1,-1.7 l 2.7,3.1 c -2.5,2.3 -5.8,3.4 -9.8,2.3 -5.9,-1.5 -9.5,-7.2 -7.9,-13.3 z"
   class="st2"
   inkscape:connector-curvature="0"
   style="fill:#ffffff" />

			<path
   id="path61285"
   d="m 136.5,247.6 h 0.4 l 8.5,22 -4.6,-0.3 -1,-2.9 -8.3,-0.5 -1.4,2.8 -4.2,-0.2 z m 1.9,15.1 -1.2,-3.3 c -0.5,-1.4 -1,-3.6 -1.1,-3.9 0,0.1 -0.8,2.3 -1.5,3.7 l -1.5,3.1 z"
   class="st2"
   inkscape:connector-curvature="0"
   style="fill:#ffffff" />

			<path
   id="path61287"
   d="m 157.1,258.6 c -1.2,-0.8 -2.9,-2.5 -2.9,-2.5 0,0 0.6,2.3 0.9,3.8 l 1.2,8.8 -4.1,0.6 -3,-21.3 0.4,-0.1 12.1,8.5 c 1.2,0.8 2.9,2.5 2.9,2.5 0,0 -0.6,-2.3 -0.8,-3.8 l -1.2,-8.8 4.1,-0.6 3,21.3 -0.4,0.1 z"
   class="st2"
   inkscape:connector-curvature="0"
   style="fill:#ffffff" />

			<path
   id="path61289"
   d="m 170.7,244.6 13.3,-4.6 1.3,3.6 -9.2,3.2 1.6,4.6 8.1,-2.8 1.2,3.6 -8,2.8 1.6,4.7 9.6,-3.3 1.3,3.6 -13.7,4.8 z"
   class="st2"
   inkscape:connector-curvature="0"
   style="fill:#ffffff" />

			<path
   id="path61291"
   d="m 188.2,238.1 12.3,-6.9 1.9,3.4 -8.5,4.8 2.4,4.3 7.5,-4.2 1.8,3.3 -7.5,4.2 2.4,4.3 8.9,-5 1.9,3.4 -12.7,7.1 z"
   class="st2"
   inkscape:connector-curvature="0"
   style="fill:#ffffff" />

			<path
   id="path61293"
   d="m 204.2,228.7 6.1,-5.1 c 3.4,-2.8 7.4,-3.5 10.6,0.3 2.1,2.5 2.1,5.1 0.8,7.5 l 8.9,3.1 -3.9,3.2 -8.1,-2.9 -2.1,1.8 4.7,5.7 -3.4,2.8 z m 12.5,2.9 c 1.7,-1.4 2.2,-2.9 0.7,-4.7 -1.5,-1.8 -3.1,-1.5 -4.7,-0.2 l -2.6,2.2 4.1,4.9 z"
   class="st2"
   inkscape:connector-curvature="0"
   style="fill:#ffffff" />

			<path
   id="path61295"
   d="m 230.9,228.2 0.7,-4.1 c 1.8,0.3 3.4,0.1 4.8,-1.6 1.2,-1.4 1.2,-2.9 0.3,-3.7 -1.1,-1 -2.3,-0.4 -4.3,0.5 l -1.1,0.5 c -3.1,1.5 -5.7,2 -8.5,-0.3 -2.5,-2.1 -2.8,-5.7 -0.3,-8.7 1.8,-2.1 3.8,-3 6.7,-2.5 l -0.5,4 c -1.5,-0.3 -2.4,0 -3.3,0.9 -0.8,1 -0.7,2.1 0.1,2.8 1,0.9 1.9,0.6 3.8,-0.3 l 1.1,-0.5 c 3.6,-1.8 6.2,-2.4 9,0 3,2.6 2.7,6.3 0,9.5 -2.6,3.4 -5.8,4.1 -8.5,3.5 z"
   class="st2"
   inkscape:connector-curvature="0"
   style="fill:#ffffff" />

		</g>

	</g>

	<g
   id="g61306">
		<path
   id="path61300"
   d="m 14.8,138.8 h 6.4 v 1.8 h -4.4 v 2.2 h 3.9 v 1.7 h -3.9 v 2.3 h 4.6 v 1.8 h -6.6 z"
   class="st2"
   inkscape:connector-curvature="0"
   style="fill:#ffffff" />

		<path
   id="path61302"
   d="m 23.9,146.5 1.6,-0.9 c 0.4,0.7 1,1.2 2,1.2 0.8,0 1.4,-0.4 1.4,-1 0,-0.7 -0.5,-0.9 -1.5,-1.3 l -0.5,-0.2 c -1.4,-0.6 -2.4,-1.4 -2.4,-3 0,-1.5 1.1,-2.6 2.9,-2.6 1.3,0 2.2,0.4 2.8,1.6 l -1.6,1 c -0.3,-0.6 -0.7,-0.9 -1.3,-0.9 -0.6,0 -1,0.4 -1,0.9 0,0.6 0.4,0.8 1.2,1.2 l 0.5,0.2 c 1.7,0.7 2.6,1.5 2.6,3.1 0,1.8 -1.4,2.8 -3.3,2.8 -1.6,0 -2.8,-0.9 -3.4,-2.1 z"
   class="st2"
   inkscape:connector-curvature="0"
   style="fill:#ffffff" />

		<path
   id="path61304"
   d="M 35.8,140.5 H 33 v -1.8 h 7.5 v 1.8 h -2.8 v 7.9 h -2 v -7.9 z"
   class="st2"
   inkscape:connector-curvature="0"
   style="fill:#ffffff" />

	</g>

	<g
   id="g61316">
		<path
   id="path61308"
   d="m 246.4,140.5 h -1.7 v -1.8 h 3.7 v 9.7 h -2 z"
   class="st2"
   inkscape:connector-curvature="0"
   style="fill:#ffffff" />

		<path
   id="path61310"
   d="m 253.1,146.3 c 0.4,-0.6 0.9,-1.1 0.9,-1.1 -0.2,0.1 -0.7,0.2 -0.9,0.2 -1.8,0 -3.2,-1.3 -3.2,-3.3 0,-1.9 1.5,-3.5 3.7,-3.5 2.1,0 3.7,1.5 3.7,3.4 0,0.9 -0.4,1.8 -0.9,2.7 l -2.5,3.8 h -2.2 z m 2.1,-4.2 c 0,-0.9 -0.6,-1.7 -1.7,-1.7 -1.1,0 -1.7,0.8 -1.7,1.7 0,0.9 0.6,1.7 1.7,1.7 1.1,0 1.7,-0.8 1.7,-1.7 z"
   class="st2"
   inkscape:connector-curvature="0"
   style="fill:#ffffff" />

		<path
   id="path61312"
   d="m 257.9,145.5 c 0,-1.1 0.6,-1.9 1.6,-2.4 -0.6,-0.4 -1,-1 -1,-1.9 0,-1.5 1.4,-2.6 2.9,-2.6 1.6,0 2.9,1.1 2.9,2.6 0,0.9 -0.4,1.5 -1,1.9 1,0.5 1.6,1.3 1.6,2.4 0,1.8 -1.4,3.1 -3.5,3.1 -2.2,0 -3.5,-1.3 -3.5,-3.1 z m 5.1,-0.1 c 0,-0.9 -0.6,-1.4 -1.5,-1.4 -0.9,0 -1.5,0.6 -1.5,1.4 0,0.9 0.6,1.4 1.5,1.4 0.9,0 1.5,-0.6 1.5,-1.4 z m -0.5,-4 c 0,-0.6 -0.4,-1 -1,-1 -0.6,0 -1,0.4 -1,1 0,0.6 0.4,1 1,1 0.5,0 1,-0.4 1,-1 z"
   class="st2"
   inkscape:connector-curvature="0"
   style="fill:#ffffff" />

		<path
   id="path61314"
   d="m 266,143.6 c 0,-3.4 2.1,-5 4.2,-5 2.1,0 4.2,1.5 4.2,5 0,3.4 -2.1,5 -4.2,5 -2.1,0 -4.2,-1.5 -4.2,-5 z m 6.3,0 c 0,-2.2 -0.9,-3.2 -2.1,-3.2 -1.2,0 -2.1,1 -2.1,3.2 0,2.2 0.9,3.2 2.1,3.2 1.2,0 2.1,-1 2.1,-3.2 z"
   class="st2"
   inkscape:connector-curvature="0"
   style="fill:#ffffff" />

	</g>

</g>
  </g>
  <style
     id="style61212"
     type="text/css">
	.st0{fill:#DA1A32;}
	.st1{fill:#1E439B;}
	.st2{fill:#FFFFFF;}
	.st3{fill:none;}
</style>
</svg>
