<?xml version="1.0" encoding="UTF-8" standalone="no"?>
<svg
   xmlns:dc="http://purl.org/dc/elements/1.1/"
   xmlns:cc="http://creativecommons.org/ns#"
   xmlns:rdf="http://www.w3.org/1999/02/22-rdf-syntax-ns#"
   xmlns:svg="http://www.w3.org/2000/svg"
   xmlns="http://www.w3.org/2000/svg"
   xmlns:sodipodi="http://sodipodi.sourceforge.net/DTD/sodipodi-0.dtd"
   xmlns:inkscape="http://www.inkscape.org/namespaces/inkscape"
   width="145.20676"
   height="97.076996"
   viewBox="0 0 116.16541 77.661597">
  <g
     transform="translate(0,-872.3384)">
    <path
       inkscape:connector-curvature="0"
       d="m 111.27935,874.85598 c 0.51296,-0.068 1.01215,-0.23382 1.5332,-0.24191 0.0348,0.54288 -0.0736,1.08011 -0.0769,1.62219 -0.0259,1.10519 -0.0105,2.2112 0.0138,3.31639 0.37622,0.0421 0.74758,-0.0372 1.11895,-0.089 0.0235,0.61814 0,1.23789 0.0639,1.8544 -0.36166,0.0971 -0.73383,0.14321 -1.10277,0.19499 -0.0599,4.30912 0,8.61906 -0.0396,12.92738 0.002,1.40293 -8e-4,2.80505 8.1e-4,4.20718 0.0138,0.75082 -0.0324,1.50326 0.0259,2.25246 0.4725,0.21926 0.96361,-0.1424 1.45795,-0.0728 0.004,0.69985 0.006,1.40051 -0.007,2.09955 0.0154,0.1335 -0.1521,0.14563 -0.24191,0.16505 -1.05503,0.13673 -2.0866,0.51781 -3.16267,0.4458 -0.60357,-0.0324 -1.20714,-0.31149 -1.56637,-0.80665 -0.36084,-0.43932 -0.44337,-1.02671 -0.50728,-1.57284 -0.017,-3.56073 0.0259,-7.12146 0.0113,-10.6822 -0.0283,-0.62136 0.0623,-1.2395 0.0437,-1.86086 -0.002,-2.10683 -0.002,-4.21447 0.003,-6.3213 -0.68286,0.10276 -1.33659,0.35114 -2.0243,0.42153 -0.0316,-0.61651 -0.005,-1.23626 0.0146,-1.85359 0.64079,-0.15372 1.28157,-0.30906 1.92721,-0.44337 0.11651,-0.64888 0.0283,-1.31555 0.12541,-1.96281 0.88432,-0.97251 1.50649,-2.15295 1.96524,-3.37869 0.0469,-0.19094 0.27023,-0.18204 0.42395,-0.22088 z"
       id="path15"
       style="fill:#006633;stroke:#006633;stroke-width:0.32000001000000000;stroke-opacity:1;stroke-miterlimit:4;stroke-dasharray:none;fill-opacity:1" />
    <path
       inkscape:connector-curvature="0"
       d="m 69.937311,884.00256 c 0.238677,-0.0526 0.481399,-0.0858 0.727357,-0.0914 0.02913,2.21524 -8.09e-4,4.43211 0.01456,6.64816 0.0049,0.0963 0.01295,0.19175 0.02266,0.28803 0.999205,0.0202 1.95634,-0.43609 2.962018,-0.36651 0.334956,0.0307 0.67234,0.0542 1.001633,0.12298 0.64645,0.18042 1.161021,0.68205 1.498404,1.24516 0.194178,0.48545 0.150488,1.02672 0.228968,1.53724 -0.0065,1.0518 0.03317,2.10602 -0.03236,3.1562 -0.01699,3.53322 -0.03236,7.06645 -0.04935,10.59967 -0.0178,0.81959 0.35761,1.65941 1.023478,2.1489 0.194178,0.15211 0.475735,0.18447 0.61975,0.39726 -0.501625,0.0744 -0.974124,0.26375 -1.470086,0.35922 -0.822019,0.1602 -1.658601,0.32525 -2.499229,0.2403 -0.34952,-0.034 -0.653731,-0.23382 -0.917489,-0.45065 -0.457936,-0.39645 -0.641596,-0.99921 -0.780756,-1.56718 -0.139161,-0.68933 -0.175569,-1.39646 -0.153724,-2.09793 -0.0065,-3.23791 0.02913,-6.4742 0.01618,-9.71131 0.05906,-0.80826 0.03884,-1.61815 0.04369,-2.42722 0.03236,-0.37541 -0.351947,-0.71522 -0.720075,-0.65535 -0.283176,0.0308 -0.531562,0.22411 -0.694185,0.44823 -0.147252,0.62541 -0.09628,1.2751 -0.136734,1.91184 -0.09547,1.2929 -0.02589,2.59227 -0.10437,3.88517 -0.04369,2.88435 -0.02427,5.7687 -0.04693,8.65223 -0.01699,0.92801 0.03398,1.85845 -0.02589,2.78484 -2.834185,0.44579 -5.63277,1.0882 -8.460483,1.5696 -0.161814,0.0267 -0.325247,0.0283 -0.487062,0.0283 0.03155,-0.54856 0.165051,-1.08983 0.36651,-1.60035 0.110034,-0.24272 0.24515,-0.54046 0.542889,-0.58173 1.245164,-0.27023 2.525118,-0.36489 3.758956,-0.69175 0.169096,-0.0534 0.370555,-0.17557 0.361656,-0.37865 0.06715,-0.96846 0.06553,-1.93935 0.07363,-2.91024 0.01861,-6.54864 0.02346,-13.09809 -0.0081,-19.64673 -0.09709,-0.0688 -0.182851,-0.18609 -0.316348,-0.15615 -0.594669,0.0445 -1.168302,0.22492 -1.759735,0.29207 0.05259,-0.66425 0.03803,-1.33092 0.07443,-1.99517 1.763781,-0.39079 3.556688,-0.62623 5.326132,-0.98707 z"
       id="path17"
       style="fill:#006633;stroke:#006633;stroke-width:0.32000001000000000;stroke-opacity:1;stroke-miterlimit:4;stroke-dasharray:none;fill-opacity:1" />
    <path
       inkscape:connector-curvature="0"
       d="m 97.94663,884.1757 c 0.499198,-0.11489 1.015387,-0.17072 1.527531,-0.14563 -0.228159,0.15291 -0.48949,0.24676 -0.719267,0.39563 -1.216846,0.84063 -1.923167,2.26055 -2.131099,3.69909 -0.03722,0.12945 -0.02508,0.32848 -0.177188,0.38026 -1.017814,0.26538 -1.998411,0.6861 -2.903765,1.2217 -0.07524,0.0599 -0.199032,0.089 -0.21845,0.19499 -0.0712,1.04532 -0.06149,2.09469 -0.05663,3.14325 -0.03074,2.10359 -0.01942,4.20718 -0.03722,6.31077 -0.12217,2.49681 -0.04531,4.99765 -0.09709,7.49607 -0.946616,0.21036 -1.898896,0.39483 -2.855221,0.55422 -0.441754,0.0696 -0.874608,0.19984 -1.322835,0.21845 -8.09e-4,-3.70152 0.02913,-7.40222 0.02184,-11.10373 0.08981,-1.4798 0.01375,-2.96364 0.04935,-4.44505 0.03722,-1.50407 -0.05906,-3.01542 0.09709,-4.51463 1.233029,-0.19903 2.449066,-0.49354 3.681285,-0.70147 0.122979,-0.002 0.272658,-0.0793 0.383501,8.1e-4 0.09871,0.2759 -0.0267,0.59548 0.105989,0.86571 0.02346,0.0105 0.06958,0.0299 0.09223,0.0405 0.288839,-0.31068 0.48059,-0.69661 0.762147,-1.01377 0.966843,-1.2128 2.268643,-2.2298 3.797792,-2.59712 z"
       id="path19"
       style="fill:#006633;stroke:#006633;stroke-width:0.32000001000000000;stroke-opacity:1;stroke-miterlimit:4;stroke-dasharray:none;fill-opacity:1" />
    <path
       inkscape:connector-curvature="0"
       d="m 102.22501,885.15225 c 1.72414,-0.32525 3.44746,-0.65697 5.17564,-0.95713 0.0922,0.74111 0.0607,1.49031 0.0777,2.23547 -0.007,1.37138 0.0113,2.74357 -0.01,4.11494 -1.30342,-0.83253 -2.60927,-1.66588 -3.83825,-2.60845 -0.0566,-0.45713 -0.0809,-0.99516 -0.49758,-1.28643 -0.47816,-0.25647 -1.20309,0.18043 -1.10357,0.74921 0.0979,1.31231 -0.0898,2.63919 0.13107,3.94423 1.2395,0.98222 2.5502,1.86977 3.81801,2.81315 0.77995,0.52509 1.47171,1.37219 1.4531,2.35845 0.0372,1.59954 0.0671,3.2015 -0.0219,4.80023 -0.0299,0.52186 0.013,1.0607 -0.15291,1.56394 -0.19418,0.48626 -0.4903,0.9539 -0.93205,1.2484 -0.7128,0.4992 -1.5866,0.6594 -2.4248,0.81312 -1.75083,0.35357 -3.51704,0.62542 -5.272729,0.95228 -0.151297,0.0243 -0.304212,0.0356 -0.4547,0.0469 -0.01699,-2.18774 0.02346,-4.37547 0.01376,-6.56402 -0.0032,-0.34871 0.01699,-0.69823 0.06715,-1.0437 0.533179,0.27994 1.011342,0.6513 1.508113,0.9903 0.856806,0.59548 1.701476,1.21038 2.524306,1.85197 0.0372,0.54532 -0.12783,1.09144 -0.0218,1.63433 0.0283,0.11246 0.068,0.28156 0.21197,0.28965 0.34062,0.038 0.73707,0.1424 1.03885,-0.0793 0.16506,-0.10194 0.14564,-0.31716 0.15373,-0.48463 -0.0138,-0.99921 0.0146,-1.99842 0.007,-2.99762 -0.007,-0.90778 0.034,-1.82365 -0.10275,-2.72415 -0.29451,-0.36409 -0.72493,-0.58173 -1.10843,-0.8382 -0.86167,-0.52995 -1.72333,-1.06393 -2.526738,-1.67964 -1.026714,-0.7848 -1.748408,-1.97171 -1.928831,-3.25571 -0.09628,-0.56069 -0.05664,-1.13109 -0.07443,-1.69663 -8.09e-4,-0.85762 0.139161,-1.74355 0.57606,-2.49437 0.29693,-0.49677 0.713603,-0.94419 1.245974,-1.1853 0.788045,-0.30825 1.636755,-0.39644 2.468485,-0.51133 z"
       id="path21"
       style="fill:#006633;stroke:#006633;stroke-width:0.32000001000000000;stroke-opacity:1;stroke-miterlimit:4;stroke-dasharray:none;fill-opacity:1" />
    <path
       inkscape:connector-curvature="0"
       d="m 86.922193,887.95812 c 0.190941,-0.0405 0.385928,-0.0647 0.581724,-0.0817 0.05016,1.1594 -0.07686,2.32528 0.0534,3.48225 0.04774,1.26944 -0.0081,2.54049 0.004,3.80993 0.01456,0.62137 -0.06554,1.2395 -0.03884,1.86087 -0.01942,2.31961 -0.0356,4.64004 -0.04288,6.95965 -0.07605,1.28724 -0.0178,2.57771 -0.07524,3.86495 -0.900499,0.23786 -1.831743,0.32282 -2.743569,0.49919 -1.50164,0.13593 -2.918328,0.8374 -4.442623,0.75972 -0.701467,-0.008 -1.381897,-0.33819 -1.84226,-0.86247 -0.181233,-0.20469 -0.247577,-0.47735 -0.311494,-0.73464 -0.130261,-0.57363 -0.199032,-1.16102 -0.203077,-1.74921 -0.0024,-1.07769 -0.121361,-2.15699 -0.02751,-3.23306 0.0081,-2.75166 0.03317,-5.50413 0.03479,-8.25579 -0.0073,-1.08901 0.149679,-2.23304 -0.300166,-3.26218 -0.169096,-0.45632 -0.495153,-0.82121 -0.830918,-1.16264 1.682873,-0.24272 3.326101,-0.7128 5.012211,-0.92235 0.04045,2.02512 -0.0178,4.05023 -0.0016,6.07615 -0.01133,2.72415 -0.01537,5.44749 -0.02589,8.17164 -0.01133,1.01943 0.02589,2.04048 -0.02751,3.05911 0.08091,0.29288 0.343047,0.62056 0.685285,0.55745 0.334956,-0.0526 0.669104,-0.22007 0.884317,-0.48625 0.150488,-0.92801 0.09466,-1.87058 0.104371,-2.80668 0,-2.48062 0.02508,-4.96205 0.01133,-7.44348 0.089,-1.75002 0.0089,-3.5049 0.05259,-5.25655 0.01942,-0.72655 -0.01618,-1.4539 0.0178,-2.18045 1.12704,-0.35519 2.315569,-0.43852 3.471735,-0.66344 z"
       id="path23"
       style="fill:#006633;stroke:#006633;stroke-width:0.32000001000000000;stroke-opacity:1;stroke-miterlimit:4;stroke-dasharray:none;fill-opacity:1" />
    <path
       inkscape:connector-curvature="0"
       d="m 62.242212,892.49378 c 0.973316,-0.161 1.93854,-0.37864 2.919138,-0.49029 0.03803,0.61489 -0.155343,1.20471 -0.319585,1.78724 -0.370555,1.65132 -0.810691,3.28727 -1.225746,4.92807 -2.073656,8.11258 -4.162684,16.22273 -6.236339,24.33612 -0.621369,-0.12702 -1.24031,-0.29288 -1.827698,-0.53561 0.693376,-2.80505 1.339826,-5.62144 2.093883,-8.41032 0.05744,-0.2767 0.220877,-0.5445 0.177996,-0.83253 -1.402124,-5.75332 -2.806676,-11.50665 -4.178865,-17.26725 -0.05583,-0.21602 -0.140779,-0.43771 -0.315539,-0.58334 -0.187705,-0.0761 -0.271039,0.17718 -0.275085,0.31958 -0.04045,0.8471 -0.0097,1.69663 -0.05583,2.54373 -1.215228,0.81959 -2.466056,1.58983 -3.749247,2.29777 -0.04531,-0.97008 0.05663,-1.9434 -0.0267,-2.91267 -0.04207,-0.32929 -0.08981,-0.70713 -0.375411,-0.92153 -0.237058,-0.20389 -0.624604,-0.0639 -0.760529,0.19337 -0.297739,0.4644 -0.224922,1.03642 -0.195796,1.55746 -0.06392,1.36815 -0.0065,2.73953 -0.04126,4.10848 0.0089,3.23629 -0.02265,6.47259 -0.01214,9.70888 0.01861,0.38269 -0.123789,0.80341 0.06877,1.15779 0.317157,0.16828 0.724121,0.10032 1.025905,-0.0728 0.235441,-0.13835 0.258095,-0.43771 0.290458,-0.67962 0.136733,-0.98303 0.0623,-1.97657 0.109225,-2.96445 1.203092,-0.78884 2.406994,-1.59387 3.71122,-2.20877 0.05097,0.31959 -8.09e-4,0.64402 0.01133,0.96603 -0.02994,1.90699 -0.0065,3.8156 -0.03964,5.72258 -1.973331,0.28561 -3.909444,0.80018 -5.89572,1.00002 -0.512143,0.0429 -1.041277,0.15129 -1.546139,0.005 -0.639978,-0.18609 -1.258919,-0.58496 -1.560703,-1.19581 -0.165051,-0.30745 -0.118934,-0.66748 -0.134307,-1.00244 -0.02589,-0.80827 -0.0057,-1.61815 -0.05987,-2.42479 0.01133,-1.19177 -0.03155,-2.38515 0.0356,-3.5753 0.01537,-2.53159 0.02508,-5.06399 0.08253,-7.59316 0.0356,-0.70146 0.0178,-1.40455 0.03398,-2.10682 -0.0016,-0.50001 0.298548,-0.95147 0.676385,-1.2573 0.297739,-0.23464 0.622178,-0.46199 1.002443,-0.53561 3.512188,-0.6416 7.025186,-1.28238 10.538992,-1.91993 0.372983,-0.0688 0.743539,-0.16425 1.125422,-0.18204 0.946616,3.05829 1.839024,6.13601 2.804249,9.18864 0.05987,0.22735 0.287221,0.32444 0.496771,0.37218 0.78561,-2.8447 1.489504,-5.71449 2.089028,-8.60531 0.0356,-0.17395 0.0356,-0.35275 0.03317,-0.52994 -0.406964,-0.021 -0.795319,0.11489 -1.19662,0.15129 0.109225,-0.44741 0.213596,-0.89726 0.338193,-1.34063 0.03641,-0.16424 0.234631,-0.15777 0.364083,-0.1958 z"
       id="path25"
       style="fill:#006633;stroke:#006633;stroke-width:0.32000001000000000;stroke-opacity:1;stroke-miterlimit:4;stroke-dasharray:none;fill-opacity:1" />
    <path
       inkscape:connector-curvature="0"
       d="m 17.78119,893.66047 c 2.136764,-0.44742 4.310745,-0.70147 6.434563,-1.21604 0.146442,0.57606 0.02427,1.16588 -0.004,1.7476 -0.574442,0.23059 -1.211992,0.19822 -1.796143,0.38835 -0.134306,0.12703 -0.106798,0.33496 -0.121361,0.50325 -0.02184,2.99438 -0.03398,5.98957 -0.03965,8.98476 -0.01537,1.34792 0.03884,2.69745 -0.04126,4.04456 0.0024,2.37301 8.09e-4,4.74683 0.0016,7.12066 -0.0073,1.08173 -0.0623,2.21686 0.404537,3.22335 0.167478,0.39321 0.518616,0.64968 0.791274,0.9636 -2.167509,0.44985 -4.352007,0.82121 -6.543788,1.13513 -0.02913,-0.5979 -0.01942,-1.19904 0.03398,-1.79533 0.364083,-0.0607 0.729785,-0.11408 1.086586,-0.21036 0.01052,-1.02429 0.02832,-2.04858 0.01942,-3.07286 0.07363,-1.69825 0.03965,-3.39892 0.06877,-5.09797 -0.0065,-1.69987 0.03317,-3.39892 0.03074,-5.09798 0.04773,-0.86166 0.04612,-1.72494 0.03722,-2.58742 0.01214,-0.12945 -0.04935,-0.28883 -0.207932,-0.23301 -0.118933,0.12784 -0.123788,0.32201 -0.179614,0.48221 -1.023478,3.98307 -1.988703,7.97989 -2.991954,11.96782 -0.10518,0.46036 -0.288839,0.92719 -0.204696,1.40617 0.136734,0.8738 0.560688,1.66912 0.710367,2.53968 0.04045,0.28722 0.310684,0.64888 0.0356,0.88836 -1.101958,1.15455 -1.995175,2.49114 -2.737905,3.89974 -0.154533,0.28398 -0.283176,0.58415 -0.483017,0.84143 -0.31392,-0.98545 -0.554215,-1.99517 -0.844673,-2.98872 -1.041277,-3.66591 -2.1011638,-7.32616 -3.1715681,-10.98398 -0.4401361,-1.4717 -0.8608543,-2.94907 -1.3333533,-4.41026 -0.055826,-0.002 -0.1682873,-0.006 -0.2241134,-0.008 -0.021036,0.64564 -0.077671,1.29047 -0.058253,1.93773 -0.013754,3.34471 -0.033981,6.68942 -0.041263,10.03332 -0.028317,0.74597 -0.095471,1.49436 -0.050162,2.23952 0.1383516,0.28803 0.4813988,0.16748 0.7281662,0.14078 0.7702381,-0.10033 1.5299582,-0.27428 2.3026235,-0.34709 0.1334971,0.56392 0.3511379,1.10762 0.4393269,1.68125 -1.3729979,0.27751 -2.7629863,0.47331 -4.1416477,0.72331 -1.1893382,0.18366 -2.3697766,0.43286 -3.5639692,0.58496 -0.021845,-0.59143 -0.00566,-1.18529 0.0178,-1.77672 0.6003326,-0.12541 1.2265556,-0.15292 1.8001888,-0.38593 0.2233043,-0.0623 0.2742759,-0.3212 0.2767031,-0.52104 -0.00809,-0.2937 -0.032363,-0.58739 -0.00405,-0.88028 0.04369,-1.53724 0.00405,-3.07609 0.07848,-4.61253 0.010518,-1.69986 0.033981,-3.39972 0.038026,-5.09959 0.086571,-2.42722 0.054208,-4.85848 0.093043,-7.28732 0.059871,-1.45472 0.038026,-2.91024 0.063108,-4.36576 -0.021036,-0.15615 0.051781,-0.3738 -0.1132703,-0.46927 -0.6642495,0.0639 -1.3139356,0.24111 -1.978185,0.30907 0,-0.53803 -0.02589,-1.07607 -0.00809,-1.6141 1.8778598,-0.31069 3.7468198,-0.67639 5.6198252,-1.01215 0.1941777,-0.0372 0.3915916,-0.0453 0.5881965,-0.0437 0.2160227,0.39887 0.3284839,0.84143 0.4271909,1.28157 1.2314099,4.30993 2.4466379,8.62634 3.6392129,12.9476 0.09628,0.27752 0.09304,0.62946 0.35761,0.81312 0.121361,-0.33253 0.234632,-0.66748 0.322821,-1.00972 1.378661,-5.15461 2.685315,-10.32782 4.101194,-15.47191 0.01214,-0.17396 0.202268,-0.19499 0.335765,-0.22978 z"
       id="path27"
       style="fill:#006633;stroke:#006633;stroke-width:0.32000001000000000;stroke-opacity:1;stroke-miterlimit:4;stroke-dasharray:none;fill-opacity:1" />
    <path
       inkscape:connector-curvature="0"
       d="m 43.853587,894.2519 c 0.304212,-0.089 0.625414,-0.0736 0.937717,-0.0445 -0.331721,0.20712 -0.706322,0.35519 -0.975743,0.64969 -0.968461,0.85519 -1.252446,2.20391 -1.334163,3.43775 -1.284809,0.25729 -2.635961,0.72979 -3.460407,1.80747 -0.08253,0.28722 -0.03641,0.59467 -0.05583,0.88998 -0.0065,1.80747 -0.02508,3.61494 -0.02751,5.42241 -0.103561,3.4774 -0.02589,6.95966 -0.13107,10.43786 -1.372189,0.28561 -2.751659,0.56393 -4.143266,0.73221 -0.004,-1.59306 0.01537,-3.18532 0.06473,-4.77677 0.02427,-2.02349 0.0097,-4.04698 0.01699,-6.07048 0.04288,-2.39809 -0.0356,-4.79861 0.05016,-7.19509 -0.0032,-0.72169 -0.381883,-1.39808 -0.924771,-1.85763 1.675591,-0.41586 3.399727,-0.59386 5.083409,-0.97655 0.126216,0.30097 -0.02265,0.67315 0.185278,0.94095 0.04531,0.006 0.135116,0.0202 0.180424,0.0267 0.254858,-0.55664 0.611659,-1.06636 1.059077,-1.48546 0.923962,-0.98869 2.19259,-1.57041 3.474971,-1.93854 z"
       id="path29"
       style="fill:#006633;stroke:#006633;stroke-width:0.32000001000000000;stroke-opacity:1;stroke-miterlimit:4;stroke-dasharray:none;fill-opacity:1" />
    <path
       inkscape:connector-curvature="0"
       d="m 30.326686,898.28351 c 0.668294,-0.14158 1.401315,-0.21764 2.04372,0.0639 0.580105,0.30017 0.90778,0.95956 0.93448,1.59549 0.03398,0.83578 -0.0178,1.67155 -0.0073,2.50732 -0.02427,1.36087 -0.0032,2.72335 -0.06958,4.08259 -0.0032,0.20146 -0.179615,0.30583 -0.346284,0.36732 -1.426397,0.59062 -2.884347,1.10034 -4.320453,1.66345 -0.228968,0.10033 -0.48868,0.14806 -0.687712,0.30341 -0.07686,0.22492 -0.06715,0.46602 -0.07686,0.70065 -0.03884,2.18693 0.02184,4.37386 -0.03479,6.55997 -0.0065,0.31716 0.182851,0.61166 0.409392,0.8204 0.305829,0.18285 0.737875,0.0485 0.919916,-0.25162 0.151297,-0.18285 0.144824,-0.42881 0.14887,-0.6513 0.0049,-1.12785 0.01133,-2.25732 0.08576,-3.38193 1.290472,-0.51943 2.566381,-1.07769 3.876271,-1.54857 0.0024,2.18127 0.0032,4.36334 0,6.5446 0.03074,0.15534 -0.09871,0.24434 -0.237058,0.25648 -2.208771,0.39078 -4.424015,0.74677 -6.635213,1.12784 -0.364892,0.0526 -0.744348,0.15858 -1.107622,0.0437 -0.546124,-0.16505 -0.992733,-0.56635 -1.317171,-1.02347 -0.235441,-0.41668 -0.34143,-0.90131 -0.394019,-1.373 0.0801,-1.15779 0.01052,-2.31962 0.05178,-3.47902 0.0089,-3.42562 0.02913,-6.85042 0.04126,-10.27604 -0.03479,-0.62542 0.07444,-1.2484 0.229777,-1.85116 0.281558,-0.59063 0.682858,-1.14484 1.235455,-1.50973 0.885127,-0.61328 1.978185,-0.80099 3.02189,-0.95714 0.745157,-0.11165 1.497596,-0.17476 2.235471,-0.33415 m -2.324469,2.43855 c -0.131879,0.48302 -0.107607,0.99031 -0.109225,1.48546 0.01133,1.50407 -0.03479,3.00814 -0.01294,4.51221 0.487871,-0.14564 1.008915,-0.26943 1.429633,-0.56393 0.02589,-1.61167 0.01942,-3.22578 0.02913,-4.83826 -0.004,-0.27832 0.06392,-0.61085 -0.164242,-0.82445 -0.317966,-0.39321 -1.008106,-0.23382 -1.172348,0.22897 z"
       id="path31"
       style="fill:#006633;stroke:#006633;stroke-width:0.32000001000000000;stroke-opacity:1;stroke-miterlimit:4;stroke-dasharray:none;fill-opacity:1" />
    <path
       inkscape:connector-curvature="0"
       d="m 100.28647,909.98676 c 2.69988,-0.49677 5.39329,-1.0348 8.09478,-1.52024 -0.12945,0.28074 -0.31068,0.53479 -0.49758,0.77913 -0.0574,0.0906 -0.16262,0.11975 -0.25728,0.14887 -7.22179,1.83255 -14.455722,3.62222 -21.688839,5.41028 -8.920037,2.19663 -17.836837,4.40864 -26.765773,6.56806 0.110034,-0.9717 0.477353,-1.89324 0.71603,-2.83823 0.102752,-0.33658 0.135924,-0.69419 0.277512,-1.01863 0.245149,-0.11569 0.522662,-0.12864 0.784801,-0.18608 13.103756,-2.49195 26.227739,-4.87629 39.336349,-7.34316 z"
       id="path33"
       style="fill:#006633;stroke:#006633;stroke-width:0.32000001000000000;stroke-opacity:1;stroke-miterlimit:4;stroke-dasharray:none;fill-opacity:1" />
    <path
       inkscape:connector-curvature="0"
       d="m 25.116252,923.83325 c 10.000149,-1.68854 19.960654,-3.60523 29.939768,-5.41513 -0.243531,1.38109 -0.661013,2.72415 -0.989497,4.08663 -0.01052,0.16586 -0.189323,0.20146 -0.317157,0.24596 -6.665957,1.77673 -13.389359,3.32934 -20.08687,4.98147 -0.138351,0.0307 -0.256476,-0.072 -0.372983,-0.12784 -0.562306,-0.3479 -1.170729,-0.60761 -1.758117,-0.90697 -2.093882,-1.05018 -4.220937,-2.04048 -6.415144,-2.86412 z"
       id="path35"
       style="fill:#006633;stroke:#006633;stroke-width:0.32000001000000000;stroke-opacity:1;stroke-miterlimit:4;stroke-dasharray:none;fill-opacity:1" />
    <path
       inkscape:connector-curvature="0"
       d="m 54.922523,924.89475 c 0.02346,-0.18446 0.220068,-0.10032 0.34062,-0.0858 0.518616,0.13512 1.042087,0.25324 1.559894,0.39483 -0.0534,0.34548 -0.161815,0.678 -0.249195,1.0162 -1.052604,4.25249 -2.085791,8.50983 -3.196649,12.74776 -0.304212,1.31313 -1.076877,2.5413 -2.207153,3.29293 -0.572824,0.32525 -1.130276,0.68933 -1.751645,0.91587 -0.635931,0.23787 -1.294517,0.41344 -1.962812,0.53561 8.09e-4,-0.9717 0.0024,-1.94259 0.0032,-2.91428 0.07929,-1.10196 0.01537,-2.20797 0.04774,-3.31154 0.03236,-1.13028 -0.03155,-2.26298 0.04612,-3.39083 -0.02184,-0.14968 0.128642,-0.19256 0.242722,-0.21926 1.2484,-0.24919 2.592272,-0.1157 3.761383,-0.69338 0.621368,-0.29207 1.067977,-0.83415 1.436915,-1.39646 0.655349,-1.09953 0.728166,-2.41104 1.076877,-3.61817 0.325247,-1.08012 0.530752,-2.19259 0.851954,-3.27352 z"
       id="path37"
       style="fill:#006633;stroke:#006633;stroke-width:0.32000001000000000;stroke-opacity:1;stroke-miterlimit:4;stroke-dasharray:none;fill-opacity:1" />
    <path
       inkscape:connector-curvature="0"
       d="m 43.823651,934.1991 c 0.583343,-0.0688 1.172348,-0.20469 1.761354,-0.12055 -0.184469,1.3018 -0.485444,2.58499 -0.741921,3.87465 -0.4191,2.05262 -0.851145,4.10281 -1.296945,6.14977 -0.620559,0.22411 -1.281572,0.28884 -1.927213,0.39968 0.0089,-0.39563 0.129452,-0.77509 0.204696,-1.16021 0.675576,-3.04616 1.259727,-6.11255 2.000029,-9.14334 z"
       id="path39"
       style="fill:#006633;stroke:#006633;stroke-width:0.32000001000000000;stroke-opacity:1;stroke-miterlimit:4;stroke-dasharray:none;fill-opacity:1" />
    <path
       inkscape:connector-curvature="0"
       d="m 46.093103,934.01949 c 0.237058,-0.0275 0.476544,-0.0356 0.715221,-0.0227 0.06068,0.36489 0.03722,0.73545 0.03722,1.10358 0.04045,1.19905 0.01537,2.3989 0.02023,3.59795 -0.05906,0.75244 0.02751,1.5073 -0.0445,2.25974 -0.0267,0.93934 -0.01618,1.88029 -0.04693,2.82124 -0.508098,0.15373 -1.038851,0.21117 -1.561512,0.29531 -0.385928,0.055 -0.771047,0.12622 -1.162639,0.11894 0.547743,-3.41672 1.393225,-6.7768 2.042911,-10.1741 z"
       id="path41"
       style="fill:#006633;stroke:#006633;stroke-width:0.32000001000000000;stroke-opacity:1;stroke-miterlimit:4;stroke-dasharray:none;fill-opacity:1" />
    <path
       inkscape:connector-curvature="0"
       d="m 41.577663,934.45558 c 0.555834,-0.0712 1.106004,-0.20308 1.669119,-0.20793 -0.189323,1.32526 -0.500817,2.6311 -0.755675,3.94585 -0.445799,2.13191 -0.879463,4.26624 -1.380279,6.38602 -0.577679,0.0947 -1.14403,0.28803 -1.733845,0.28074 0.576869,-3.00085 1.203092,-5.992 1.86006,-8.97586 0.115698,-0.47573 0.190132,-0.96199 0.34062,-1.42882 z"
       id="path43"
       style="fill:#006633;stroke:#006633;stroke-width:0.32000001000000000;stroke-opacity:1;stroke-miterlimit:4;stroke-dasharray:none;fill-opacity:1" />
    <path
       inkscape:connector-curvature="0"
       d="m 39.395592,934.85121 c 0.533179,-0.14887 1.081731,-0.25 1.635137,-0.2856 -0.638359,3.51704 -1.381088,7.01548 -2.185307,10.49854 -0.558261,0.089 -1.107622,0.26133 -1.674783,0.27428 0.730594,-3.49763 1.474941,-6.99364 2.224953,-10.48722 z"
       id="path45"
       style="fill:#006633;stroke:#006633;stroke-width:0.32000001000000000;stroke-opacity:1;stroke-miterlimit:4;stroke-dasharray:none;fill-opacity:1" />
    <path
       inkscape:connector-curvature="0"
       d="m 37.245883,935.37064 c 0.519425,-0.19822 1.076068,-0.2767 1.618147,-0.39159 -0.02508,0.46926 -0.144824,0.92639 -0.220068,1.38918 -0.490298,2.55667 -1.016196,5.10687 -1.571221,7.6506 -0.11327,0.50486 -0.220068,1.01053 -0.354374,1.51054 -0.542888,0.18204 -1.099531,0.31715 -1.661028,0.42719 0.04612,-0.50325 0.19175,-0.98788 0.286412,-1.48142 0.597905,-2.92561 1.067168,-5.87711 1.721709,-8.79139 0.03722,-0.1157 0.03722,-0.27751 0.180423,-0.31311 z"
       id="path47"
       style="fill:#006633;stroke:#006633;stroke-width:0.32000001000000000;stroke-opacity:1;stroke-miterlimit:4;stroke-dasharray:none;fill-opacity:1" />
    <path
       inkscape:connector-curvature="0"
       d="m 35.439222,935.75576 c 0.407773,-0.0761 0.805837,-0.21522 1.223319,-0.23382 -0.622987,3.30668 -1.296136,6.60365 -1.99113,9.89658 -0.06553,0.25567 -0.0623,0.54289 -0.203887,0.77186 -0.580105,0.13835 -1.148884,0.32848 -1.736272,0.43366 0.588197,-3.55507 1.462805,-7.05431 2.19259,-10.58106 0.02427,-0.24434 0.336574,-0.22411 0.51538,-0.28722 z"
       id="path49"
       style="fill:#006633;stroke:#006633;stroke-width:0.32000001000000000;stroke-opacity:1;stroke-miterlimit:4;stroke-dasharray:none;fill-opacity:1" />
    <path
       inkscape:connector-curvature="0"
       d="m 33.18757,936.33344 c 0.435282,-0.0914 0.855191,-0.25001 1.296945,-0.30907 -0.596287,3.33338 -1.369762,6.63198 -2.114918,9.93462 -0.06149,0.2589 -0.103562,0.52347 -0.188515,0.77671 -0.02104,0.11327 -0.147251,0.13511 -0.236249,0.17314 -0.406964,0.1335 -0.820401,0.25243 -1.237883,0.3479 0.244341,-1.59226 0.593051,-3.16671 0.895645,-4.74845 0.397255,-1.97172 0.805837,-3.94019 1.200665,-5.91109 -0.0032,-0.20713 0.237868,-0.21441 0.38431,-0.26376 z"
       id="path51"
       style="fill:#006633;stroke:#006633;stroke-width:0.32000001000000000;stroke-opacity:1;stroke-miterlimit:4;stroke-dasharray:none;fill-opacity:1" />
    <path
       inkscape:connector-curvature="0"
       d="m 30.568599,937.10448 c 0.518616,-0.24272 1.087395,-0.36651 1.653746,-0.43123 -0.545315,2.50489 -0.950661,5.0381 -1.511349,7.53975 -0.08738,0.29532 -0.104371,0.61328 -0.244341,0.8916 -0.08172,-2.6667 0.09628,-5.33341 0.101944,-8.00012 z"
       id="path53"
       style="fill:#006633;stroke:#006633;stroke-width:0.32000001000000000;stroke-opacity:1;stroke-miterlimit:4;stroke-dasharray:none;fill-opacity:1" />
    <path
       inkscape:connector-curvature="0"
       d="m 29.148675,937.5519 c 0.266185,-0.11084 0.531561,-0.22411 0.808264,-0.30664 0.03965,1.13109 -0.01456,2.26298 -0.004,3.39407 -0.04612,0.75244 0.02589,1.5073 -0.04693,2.25974 -0.01133,0.99921 -0.01618,1.99841 -0.02023,2.99843 -0.01214,0.55988 -0.004,1.12299 -0.09385,1.67721 -0.949852,0.27023 -1.889187,0.67072 -2.894056,0.65292 -0.199032,0.0154 -0.33172,-0.16829 -0.382692,-0.33739 -0.208741,-0.64321 -0.11327,-1.32849 -0.133497,-1.99274 0.01294,-1.9434 0.01052,-3.88679 0.04693,-5.83019 0.03074,-0.3479 -0.02913,-0.75729 0.241913,-1.02671 0.627841,-0.77024 1.585784,-1.12785 2.478193,-1.4887 z"
       id="path55"
       style="fill:#006633;stroke:#006633;stroke-width:0.32000001000000000;stroke-opacity:1;stroke-miterlimit:4;stroke-dasharray:none;fill-opacity:1" />
    <g
       transform="matrix(0.08090736,0,0,0.08090736,0.59970347,872.83815)"
       style="stroke:#006633;stroke-opacity:1;fill:#006633;fill-opacity:1">
      <path
         style="fill:#006633;stroke:#006633;stroke-opacity:1;fill-opacity:1"
         inkscape:connector-curvature="0"
         d="m 677.85,625.15 c -2.65,-0.35 -1.17,-4.54 1.13,-3.68 7.15,0.72 13.78,3.89 20.9,4.91 -0.05,1.49 -0.11,2.99 -0.16,4.5 -7.47,-1.08 -14.8,-3.13 -21.87,-5.73 z"
         id="path5" />
      <path
         style="fill:#006633;stroke:#006633;stroke-opacity:1;fill-opacity:1"
         inkscape:connector-curvature="0"
         d="m 674.15,631.24 c 1.72,0.03 3.47,0.03 5.15,0.5 6.23,1.73 12.67,2.86 18.59,5.57 -0.38,1.58 -0.45,3.63 -2.19,4.39 -1.21,0.01 -2.3,-0.57 -3.41,-0.91 -6.23,-2.53 -13.62,-2.13 -18.93,-6.74 0.2,-0.7 0.6,-2.11 0.79,-2.81 z"
         id="path7" />
    </g>
    <path
       id="path10"
       d="m 113.67291,872.83815 0.62542,0 c 0.0372,0.86247 -0.01,1.72575 0.0324,2.58823 0.0267,0.83901 -0.0396,1.67802 -0.002,2.51702 0.41101,-0.0938 0.81878,-0.21359 1.24031,-0.25647 l 0,4.77191 c -0.4191,0.19499 -0.86571,0.31959 -1.28885,0.50406 0.0574,5.4483 -0.0485,10.89822 0.0129,16.34652 0.43205,0.0291 0.84629,-0.12622 1.27591,-0.13997 l 0,5.10849 c -1.78158,0.16505 -3.51219,0.93448 -5.32451,0.6683 -0.76619,-0.10276 -1.44662,-0.5259 -1.96362,-1.08659 -0.28803,0.60276 -0.67072,1.18044 -1.24031,1.55099 -1.17235,0.81879 -2.63596,0.92882 -4.00168,1.16912 -1.92074,0.33657 -3.8342,0.71198 -5.75251,1.05988 -0.21117,0.0461 -0.42557,0.01 -0.63432,-0.0235 -0.0526,-1.07445 0.0275,-2.14971 0.007,-3.22416 0.0129,-3.02189 0.0356,-6.04459 0.0477,-9.06648 1.56718,1.1141 3.16025,2.19259 4.75493,3.26785 0.26214,0.16748 0.50243,0.38674 0.8115,0.46684 0.0494,-0.47655 0.0283,-0.95795 -0.009,-1.43368 -0.38027,-0.3835 -0.86328,-0.64888 -1.30504,-0.95471 -1.3115,-0.85843 -2.74842,-1.67236 -3.60523,-3.03322 -0.60357,-0.91749 -0.66101,-2.0421 -0.92153,-3.07852 -0.72412,0.038 -1.37866,0.42719 -1.9167,0.88917 -0.0769,5.49442 -0.093,10.98965 -0.10518,16.48407 0.008,0.16828 -0.13592,0.30987 -0.29774,0.32524 -5.63196,0.96927 -11.2623,1.95392 -16.85866,3.11089 -0.58173,0.13512 -1.18449,0.12703 -1.76783,0.25648 -0.80422,0.16586 -1.65051,0.25486 -2.4523,0.0316 -0.2945,-0.12055 -0.53803,-0.33253 -0.81878,-0.47897 -0.0307,0.33981 -0.0623,0.68124 -0.11489,1.01862 -3.66996,0.67477 -7.3383,1.36087 -11.00664,2.04615 -0.26133,0.50567 -0.49758,1.05989 -0.45551,1.64161 1.28319,-0.19175 2.55344,-0.46117 3.83097,-0.6869 15.55525,-2.86898 31.11616,-5.70802 46.66169,-8.62635 0.13188,-0.0235 0.26619,-0.0113 0.4005,0 -0.0372,0.11975 -0.0663,0.24839 -0.1513,0.34467 -0.65535,0.77833 -1.28562,1.57608 -1.91751,2.37301 -0.27265,0.32282 -0.50728,0.68124 -0.8115,0.97494 -0.55664,0.2055 -1.14726,0.30259 -1.71766,0.4644 -11.022,2.8172 -22.0602,5.56967 -33.09353,8.34236 -5.03082,1.27672 -10.07216,2.50975 -15.09408,3.82045 -0.79451,2.76298 -1.51944,5.5462 -2.18854,8.34236 -0.70875,2.66508 -1.20633,5.38276 -1.98466,8.02924 -0.28722,0.97736 -0.63917,1.96201 -1.28238,2.76703 -0.80746,1.07203 -1.95715,1.84874 -3.21283,2.3002 -2.38677,0.8738 -4.96367,0.89241 -7.43377,1.3908 -2.90862,0.65373 -5.83909,1.22817 -8.70725,2.04938 -0.56635,0.18042 -1.14889,0.30017 -1.71847,0.46846 -1.3285,0.38997 -2.62788,0.87865 -3.9766,1.19823 -0.40858,0.10114 -0.82445,0.16586 -1.23303,0.26295 l -0.48544,0 c -0.54532,-0.1432 -1.0073,-0.54612 -1.25892,-1.04532 -0.30098,-0.77348 -0.25891,-1.623 -0.2225,-2.43612 0.038,-0.72736 0.008,-1.45472 0.0137,-2.18207 0.0283,-1.32122 0.0267,-2.64325 0.0356,-3.96446 -0.0461,-0.5971 0.15615,-1.17882 0.42315,-1.70391 0.45955,-0.84306 1.33416,-1.33578 2.18935,-1.69582 0.83011,-0.33658 1.67721,-0.63027 2.49518,-0.99516 1.76945,-0.60681 3.55426,-1.18206 5.38601,-1.57284 1.21118,-0.26133 2.42965,-0.49354 3.65135,-0.70875 3.68937,-0.61894 7.4281,-0.86004 11.13609,-1.33335 0.66505,-0.12865 1.22089,-0.61813 1.52672,-1.21038 0.40049,-0.77347 0.49515,-1.65132 0.67638,-2.49113 0.0769,-0.38755 0.22331,-0.75649 0.31069,-1.14161 0.22654,-0.99516 0.58334,-1.95957 0.73949,-2.97011 -1.11167,0.18933 -2.2023,0.48626 -3.30183,0.73222 -5.6441,1.33739 -11.25745,2.80101 -16.89588,4.16349 -0.2047,0.0332 -0.44095,0.15129 -0.62946,0.009 -2.1756,-1.46119 -4.54942,-2.61736 -7.01305,-3.50734 -2.86493,-0.96118 -5.84799,-1.60601 -8.86907,-1.77996 0.10518,-0.11974 0.23544,-0.22088 0.39888,-0.23867 12.7243,-2.18289 25.44293,-4.40541 38.13164,-6.79137 0.18365,-0.44256 0.28722,-0.91263 0.411,-1.37461 0.16263,-0.61733 0.33011,-1.23384 0.47817,-1.85521 0.0849,-0.28641 -0.0315,-0.57363 -0.0898,-0.85195 -0.41506,-1.82204 -0.84063,-3.64084 -1.28238,-5.4564 -0.0461,-0.18689 -0.0866,-0.37622 -0.15615,-0.55583 -0.0307,0.006 -0.0906,0.0178 -0.12056,0.0243 -0.14725,0.62622 -0.10599,1.27672 -0.13916,1.91508 -0.0146,2.23547 0.12136,4.47256 0.0105,6.70722 -2.72334,0.46036 -5.41675,1.12461 -8.17569,1.34792 -1.02347,0.055 -2.03643,-0.36651 -2.79777,-1.03805 -0.51619,-0.41343 -0.81636,-1.03156 -1.01134,-1.6497 -0.19176,-0.66829 -0.11408,-1.36976 -0.10276,-2.05343 0.004,-3.91915 0.0575,-7.83668 0.0688,-11.75503 -0.70551,0.0655 -1.37219,0.36651 -1.93854,0.784 -0.12136,0.0938 -0.28156,0.19903 -0.25324,0.37702 -0.0113,5.52598 0.0663,11.05519 -0.2055,16.5763 -7.39574,1.31799 -14.79472,2.61817 -22.20665,3.84229 -0.75163,0.12298 -1.49921,0.27185 -2.25569,0.36247 -0.0542,-0.11165 -0.11004,-0.2225 -0.16586,-0.33253 -0.83011,1.10762 -1.64647,2.24923 -2.16428,3.54212 -0.55745,1.36815 -0.63835,2.86089 -0.96198,4.2889 -0.0534,0.0113 -0.1602,0.0332 -0.2136,0.0445 -0.48625,-1.27995 -0.72817,-2.63434 -1.16749,-3.92886 -0.13026,-0.4013 -0.15211,-0.83092 -0.3204,-1.22008 -0.18366,-0.42962 -0.1788,-0.92396 -0.44903,-1.31717 -3.20555,0.54936 -6.41757,1.06231 -9.63687998,1.52591 l 0,-2.87221 c 0.055,-0.58415 0.0129,-1.17154 0.0291,-1.75731 C 1.3071,919.95874 2.01828,919.89967 2.68981,919.67556 c 0.20793,-1.3107 0.0671,-2.64001 0.13512,-3.9588 -0.004,-1.72494 0.0259,-3.44989 0.0194,-5.17483 0.0494,-1.18691 -0.007,-2.37544 0.0405,-3.56154 0.008,-0.80989 -0.004,-1.61896 0.005,-2.42803 0.0372,-1.13109 -0.0129,-2.26217 0.0332,-3.39245 0.003,-0.56959 0.007,-1.13917 -0.003,-1.70795 -0.70309,0.0502 -1.38028,0.26699 -2.07688998,0.35923 0.0146,-0.68448 0.0259,-1.36896 0.0251,-2.05424 0.0485,-0.88513 -0.0162,-1.77349 0.0388,-2.65781 C 3.48394,894.52955 6.09887,894.159 8.69681,893.70106 c 0.31149,-0.0583 0.62217,-0.12298 0.93852,-0.1521 0.19175,0.53156 0.3568,1.07202 0.52185,1.61248 0.95633,3.18047 1.85197,6.37874 2.79859,9.56163 0.18123,-0.40454 0.26618,-0.84224 0.38916,-1.2662 0.98545,-3.69423 1.85845,-7.41678 2.81153,-11.1191 0.19175,-0.0267 0.38512,-0.0437 0.57606,-0.0769 2.85603,-0.54774 5.71935,-1.05989 8.57538,-1.60844 0.14158,-0.0307 0.28803,-0.0283 0.43204,-0.0162 0.0607,1.50811 0.034,3.01946 0.0866,4.52839 0.009,0.12783 -0.0615,0.24029 -0.10356,0.35599 -0.70389,0.0574 -1.40455,0.17719 -2.08013,0.38512 -0.0105,0.94985 -0.0162,1.90051 0.0243,2.85036 0.57687,-0.46683 1.22008,-0.85438 1.93288,-1.07364 1.56556,-0.5089 3.22901,-0.52589 4.83421,-0.83901 0.37541,-0.0712 0.74354,-0.18204 1.12138,-0.24434 2.59065,-0.40777 5.16351,-0.92153 7.74283,-1.39646 0.23463,-0.0154 0.39483,-0.19175 0.55098,-0.34628 1.57931,-1.51782 3.85119,-2.39405 6.04216,-2.00408 0.52105,0.14887 0.89727,0.59063 1.41346,0.75811 0.46926,0.18446 0.9636,0.002 1.4361,-0.0704 2.7549,-0.48383 5.50575,-0.99193 8.25255,-1.52187 0.47169,-0.0801 0.9361,-0.20793 1.41507,-0.24434 0.51215,1.77187 1.06232,3.53322 1.62219,5.29134 0.12298,0.34709 0.20227,0.71684 0.40616,1.02914 0.19984,-0.50243 0.28156,-1.04047 0.42476,-1.5607 0.0736,-0.36651 0.21683,-0.72736 0.18609,-1.10762 -0.32363,-0.006 -0.63836,0.0696 -0.94662,0.15777 0.37299,-1.40051 0.60681,-2.83095 0.91345,-4.24602 1.35601,-0.29936 2.71768,-0.57283 4.0753,-0.86571 0.0186,-0.69823 0.093,-1.39565 0.0793,-2.09388 -0.67315,0.0801 -1.33254,0.24191 -2.00488,0.32282 -0.002,-0.47736 -0.01,-0.95552 0.009,-1.43206 0.0453,-1.18125 -0.0396,-2.36654 0.055,-3.54536 1.08901,-0.17153 2.16589,-0.41101 3.25005,-0.60681 1.81637,-0.36246 3.6384,-0.70066 5.45153,-1.08011 0.0987,-0.0178 0.20146,-0.0324 0.30422,-0.0178 0.0938,0.21359 0.038,0.46198 0.0526,0.69014 -0.034,1.02429 -0.0226,2.04938 -0.0235,3.07448 -0.0235,1.08982 -0.0243,2.17964 -0.008,3.26946 0.55745,0.0437 1.10114,-0.10437 1.64646,-0.19498 5.96854,-1.05665 11.91199,-2.24761 17.87729,-3.32206 0.63189,-0.13269 1.27995,-0.19579 1.90375,-0.35761 0.37379,-0.26861 0.67315,-0.62865 1.04775,-0.89969 1.32526,-1.0704 2.99762,-1.88271 4.74117,-1.71281 0.67801,0.0825 1.41265,0.22492 1.9078,0.73788 0.18932,0.14968 0.36247,0.45712 0.64402,0.34143 1.10682,-0.267 2.25327,-0.35357 3.34148,-0.70066 0.0647,-1.03642 0.0121,-2.07528 0.038,-3.11251 0.69257,-0.18528 1.36734,-0.42962 2.05829,-0.62298 0.0453,-0.44823 0.0429,-0.89969 0.0858,-1.34711 0.008,-0.12945 0.12136,-0.21522 0.19498,-0.3123 0.99274,-1.07931 1.68045,-2.43936 1.94825,-3.88275 0.33739,-0.17395 0.71765,-0.21602 1.08902,-0.26942 0.9725,-0.14563 1.91427,-0.45146 2.89405,-0.55907 m -2.39324,2.01783 c -0.15372,0.0388 -0.37702,0.0299 -0.42395,0.22088 -0.45875,1.22574 -1.08092,2.40618 -1.96524,3.37869 -0.0971,0.64726 -0.009,1.31393 -0.12541,1.96281 -0.64564,0.13431 -1.28642,0.28965 -1.92721,0.44337 -0.0194,0.61733 -0.0461,1.23708 -0.0146,1.85359 0.68771,-0.0704 1.34144,-0.31877 2.0243,-0.42153 -0.005,2.10683 -0.006,4.21447 -0.003,6.3213 0.0186,0.62136 -0.072,1.2395 -0.0437,1.86086 0.0146,3.56074 -0.0283,7.12147 -0.0113,10.6822 0.0639,0.54613 0.14644,1.13352 0.50728,1.57284 0.35923,0.49516 0.9628,0.77429 1.56637,0.80665 1.07607,0.072 2.10764,-0.30907 3.16267,-0.4458 0.0898,-0.0194 0.25729,-0.0316 0.24191,-0.16505 0.013,-0.69904 0.0113,-1.3997 0.007,-2.09955 -0.49434,-0.0696 -0.98545,0.29208 -1.45795,0.0728 -0.0583,-0.7492 -0.0121,-1.50164 -0.0259,-2.25246 -0.002,-1.40213 8.1e-4,-2.80425 -8.1e-4,-4.20718 0.0396,-4.30832 -0.0202,-8.61826 0.0396,-12.92738 0.36894,-0.0518 0.74111,-0.0979 1.10277,-0.19499 -0.0639,-0.61651 -0.0405,-1.23626 -0.0639,-1.8544 -0.37137,0.0518 -0.74273,0.13107 -1.11895,0.089 -0.0243,-1.10519 -0.0396,-2.2112 -0.0138,-3.31639 0.003,-0.54208 0.11165,-1.07931 0.0769,-1.62219 -0.52105,0.008 -1.02024,0.17395 -1.5332,0.24191 m -41.34204,9.14658 c -1.76945,0.36084 -3.56235,0.59628 -5.32613,0.98707 -0.0364,0.66425 -0.0219,1.33092 -0.0744,1.99517 0.59143,-0.0671 1.16506,-0.24757 1.75973,-0.29207 0.1335,-0.0299 0.21926,0.0874 0.31635,0.15615 0.0315,6.54864 0.0267,13.09809 0.008,19.64673 -0.008,0.97089 -0.007,1.94178 -0.0736,2.91024 0.009,0.20308 -0.19256,0.32525 -0.36166,0.37865 -1.23383,0.32686 -2.51379,0.42152 -3.75895,0.69175 -0.29774,0.0413 -0.43286,0.33901 -0.54289,0.58173 -0.20146,0.51052 -0.33496,1.05179 -0.36651,1.60035 0.16181,0 0.32525,-0.002 0.48706,-0.0283 2.82771,-0.4814 5.6263,-1.12381 8.46048,-1.5696 0.0599,-0.92639 0.009,-1.85683 0.0259,-2.78484 0.0226,-2.88353 0.003,-5.76788 0.0469,-8.65223 0.0785,-1.2929 0.009,-2.59227 0.10437,-3.88517 0.0405,-0.63674 -0.0105,-1.28643 0.13674,-1.91184 0.16262,-0.22412 0.41101,-0.41748 0.69418,-0.44823 0.36813,-0.0599 0.75244,0.27994 0.72008,0.65535 -0.005,0.80907 0.0154,1.61896 -0.0437,2.42722 0.0129,3.23711 -0.0226,6.4734 -0.0162,9.71131 -0.0218,0.70147 0.0146,1.4086 0.15372,2.09793 0.13916,0.56797 0.32282,1.17073 0.78076,1.56718 0.26376,0.21683 0.56797,0.41667 0.91749,0.45065 0.84062,0.085 1.67721,-0.0801 2.49923,-0.2403 0.49596,-0.0955 0.96846,-0.28479 1.47008,-0.35922 -0.14401,-0.21279 -0.42557,-0.24515 -0.61975,-0.39726 -0.66587,-0.48949 -1.04128,-1.32931 -1.02348,-2.1489 0.017,-3.53322 0.0324,-7.06645 0.0494,-10.59967 0.0655,-1.05018 0.0259,-2.1044 0.0324,-3.1562 -0.0785,-0.51052 -0.0348,-1.05179 -0.22896,-1.53724 -0.33739,-0.56311 -0.85196,-1.06474 -1.49841,-1.24516 -0.32929,-0.0688 -0.66668,-0.0922 -1.00163,-0.12298 -1.00568,-0.0696 -1.96281,0.38674 -2.96202,0.36651 -0.01,-0.0963 -0.0178,-0.19175 -0.0227,-0.28803 -0.0154,-2.21605 0.0146,-4.43292 -0.0146,-6.64816 -0.24596,0.006 -0.48868,0.0388 -0.72736,0.0914 m 28.00932,0.17314 c -1.52915,0.36732 -2.83095,1.38432 -3.79779,2.59712 -0.28156,0.31716 -0.47331,0.70309 -0.76215,1.01377 -0.0226,-0.0105 -0.0688,-0.0299 -0.0922,-0.0405 -0.13268,-0.27023 -0.007,-0.58981 -0.10599,-0.86571 -0.11084,-0.0801 -0.26052,-0.003 -0.3835,-8.1e-4 -1.23222,0.20793 -2.44825,0.50244 -3.68128,0.70147 -0.15615,1.49921 -0.0599,3.01056 -0.0971,4.51463 -0.0356,1.48141 0.0404,2.96525 -0.0494,4.44505 0.007,3.70151 -0.0226,7.40221 -0.0218,11.10373 0.44823,-0.0186 0.88108,-0.14887 1.32283,-0.21845 0.95633,-0.15939 1.90861,-0.34386 2.85522,-0.55422 0.0518,-2.49842 -0.0251,-4.99926 0.0971,-7.49607 0.0178,-2.10359 0.007,-4.20718 0.0372,-6.31077 -0.005,-1.04856 -0.0146,-2.09793 0.0566,-3.14325 0.0194,-0.10599 0.14321,-0.13512 0.21845,-0.19499 0.90536,-0.5356 1.88596,-0.95632 2.90377,-1.2217 0.15211,-0.0518 0.13997,-0.25081 0.17719,-0.38026 0.20793,-1.43854 0.91425,-2.85846 2.1311,-3.69909 0.22977,-0.14887 0.4911,-0.24272 0.71926,-0.39563 -0.51214,-0.0251 -1.02833,0.0307 -1.52753,0.14563 m 4.27838,0.97655 c -0.83173,0.11489 -1.68044,0.20308 -2.46848,0.51133 -0.53237,0.24111 -0.94904,0.68853 -1.24597,1.1853 -0.4369,0.75082 -0.57687,1.63675 -0.57606,2.49437 0.0178,0.56554 -0.0218,1.13594 0.0744,1.69663 0.18042,1.284 0.90211,2.47091 1.92883,3.25571 0.80341,0.61571 1.66507,1.14969 2.52674,1.67964 0.3835,0.25647 0.81392,0.47411 1.10843,0.8382 0.13673,0.9005 0.0955,1.81637 0.10275,2.72415 0.007,0.9992 -0.021,1.99841 -0.007,2.99762 -0.008,0.16747 0.0113,0.38269 -0.15373,0.48463 -0.30178,0.22169 -0.69823,0.11732 -1.03885,0.0793 -0.14401,-0.008 -0.18366,-0.17719 -0.21197,-0.28965 -0.10599,-0.54289 0.0591,-1.08901 0.0218,-1.63433 -0.82283,-0.64159 -1.6675,-1.25649 -2.52431,-1.85197 -0.49677,-0.339 -0.97493,-0.71036 -1.50811,-0.9903 -0.0502,0.34547 -0.0704,0.69499 -0.0672,1.0437 0.01,2.18855 -0.0307,4.37628 -0.0138,6.56402 0.15048,-0.0113 0.3034,-0.0227 0.4547,-0.0469 1.75569,-0.32686 3.5219,-0.59871 5.27273,-0.95228 0.8382,-0.15372 1.712,-0.31392 2.4248,-0.81312 0.44175,-0.2945 0.73787,-0.76214 0.93205,-1.2484 0.16586,-0.50324 0.12298,-1.04208 0.15291,-1.56394 0.089,-1.59873 0.0591,-3.20069 0.0219,-4.80023 0.0186,-0.98626 -0.67315,-1.83336 -1.4531,-2.35845 -1.26781,-0.94338 -2.57851,-1.83093 -3.81801,-2.81315 -0.22088,-1.30504 -0.0332,-2.63192 -0.13107,-3.94423 -0.0995,-0.56878 0.62541,-1.00568 1.10357,-0.74921 0.41667,0.29127 0.44095,0.8293 0.49758,1.28643 1.22898,0.94257 2.53483,1.77592 3.83825,2.60845 0.021,-1.37137 0.002,-2.74356 0.01,-4.11494 -0.017,-0.74516 0.0146,-1.49436 -0.0777,-2.23547 -1.72818,0.30016 -3.4515,0.63188 -5.17564,0.95713 m -15.30282,2.80587 c -1.15617,0.22492 -2.3447,0.30825 -3.47174,0.66344 -0.034,0.72655 0.002,1.4539 -0.0178,2.18045 -0.0437,1.75165 0.0364,3.50653 -0.0526,5.25655 0.0138,2.48143 -0.0113,4.96286 -0.0113,7.44348 -0.01,0.9361 0.0461,1.87867 -0.10437,2.80668 -0.21521,0.26618 -0.54936,0.43366 -0.88431,0.48625 -0.34224,0.0631 -0.60438,-0.26457 -0.68529,-0.55745 0.0534,-1.01863 0.0162,-2.03968 0.0275,-3.05911 0.0105,-2.72415 0.0146,-5.44749 0.0259,-8.17164 -0.0162,-2.02592 0.0421,-4.05103 0.002,-6.07615 -1.68611,0.20955 -3.32934,0.67963 -5.01221,0.92235 0.33576,0.34143 0.66182,0.70632 0.83092,1.16264 0.44984,1.02914 0.29288,2.17317 0.30016,3.26218 -0.002,2.75166 -0.0267,5.50413 -0.0348,8.25579 -0.0939,1.07607 0.0251,2.15537 0.0275,3.23306 0.004,0.58819 0.0728,1.17558 0.20308,1.74921 0.0639,0.25729 0.13026,0.52995 0.31149,0.73464 0.46037,0.52428 1.1408,0.85438 1.84226,0.86247 1.5243,0.0777 2.94099,-0.62379 4.44263,-0.75972 0.91182,-0.17637 1.84307,-0.26133 2.74357,-0.49919 0.0574,-1.28724 -8.1e-4,-2.57771 0.0752,-3.86495 0.007,-2.31961 0.0235,-4.64004 0.0429,-6.95965 -0.0267,-0.62137 0.0534,-1.2395 0.0388,-1.86087 -0.0121,-1.26944 0.0437,-2.54049 -0.004,-3.80993 -0.13026,-1.15697 -0.003,-2.32285 -0.0534,-3.48225 -0.1958,0.017 -0.39079,0.0413 -0.58173,0.0817 m 16.67986,1.75002 c -0.0154,0.35195 0.0178,0.7039 0.0291,1.05665 1.30099,0.89969 2.54858,1.87786 3.83339,2.7994 0.0348,-0.38269 0.0494,-0.76619 0.0583,-1.14889 0.0243,-0.13511 -0.1068,-0.19903 -0.19418,-0.26456 -1.00325,-0.69581 -2.01864,-1.37462 -3.0316,-2.05586 -0.2225,-0.14321 -0.43043,-0.32767 -0.695,-0.38674 m -41.35984,2.78564 c -0.12945,0.038 -0.32767,0.0316 -0.36408,0.1958 -0.1246,0.44337 -0.22897,0.89322 -0.33819,1.34063 0.4013,-0.0364 0.78965,-0.17233 1.19662,-0.15129 0.002,0.17719 0.002,0.35599 -0.0332,0.52994 -0.59953,2.89082 -1.30342,5.76061 -2.08903,8.60531 -0.20955,-0.0477 -0.4369,-0.14483 -0.49677,-0.37218 -0.96523,-3.05263 -1.85764,-6.13035 -2.80425,-9.18864 -0.38189,0.0178 -0.75244,0.11327 -1.12542,0.18204 -3.51381,0.63755 -7.02681,1.27833 -10.539,1.91993 -0.38026,0.0736 -0.7047,0.30097 -1.00244,0.53561 -0.37784,0.30583 -0.678,0.75729 -0.67638,1.2573 -0.0162,0.70227 0.002,1.40536 -0.034,2.10682 -0.0575,2.52917 -0.0672,5.06157 -0.0825,7.59316 -0.0671,1.19015 -0.0243,2.38353 -0.0356,3.5753 0.0542,0.80664 0.034,1.61652 0.0599,2.42479 0.0154,0.33496 -0.0307,0.69499 0.1343,1.00244 0.30179,0.61085 0.92073,1.00972 1.56071,1.19581 0.50486,0.14644 1.03399,0.038 1.54613,-0.005 1.98628,-0.19984 3.92239,-0.71441 5.89572,-1.00002 0.0332,-1.90698 0.01,-3.81559 0.0396,-5.72258 -0.0121,-0.32201 0.0397,-0.64644 -0.0113,-0.96603 -1.30422,0.6149 -2.50812,1.41993 -3.71122,2.20877 -0.0469,0.98788 0.0275,1.98142 -0.10922,2.96445 -0.0324,0.24191 -0.055,0.54127 -0.29046,0.67962 -0.30178,0.17314 -0.70875,0.2411 -1.0259,0.0728 -0.19256,-0.35438 -0.0502,-0.7751 -0.0688,-1.15779 -0.0105,-3.23629 0.021,-6.47259 0.0121,-9.70888 0.0348,-1.36895 -0.0226,-2.74033 0.0413,-4.10848 -0.0291,-0.52104 -0.10195,-1.09306 0.19579,-1.55746 0.13593,-0.25729 0.52347,-0.39726 0.76053,-0.19337 0.2856,0.2144 0.33334,0.59224 0.37541,0.92153 0.0833,0.96927 -0.0186,1.94259 0.0267,2.91267 1.28319,-0.70794 2.53402,-1.47818 3.74925,-2.29777 0.0461,-0.8471 0.0154,-1.69663 0.0558,-2.54373 0.004,-0.1424 0.0874,-0.39564 0.27508,-0.31958 0.17476,0.14563 0.25972,0.36732 0.31554,0.58334 1.37219,5.7606 2.77674,11.51393 4.17887,17.26725 0.0429,0.28803 -0.12055,0.55583 -0.178,0.83253 -0.75405,2.78888 -1.4005,5.60527 -2.09388,8.41032 0.58739,0.24273 1.20633,0.40859 1.8277,0.53561 2.07365,-8.11339 4.16268,-16.22354 6.23634,-24.33612 0.41505,-1.6408 0.85519,-3.27675 1.22574,-4.92807 0.16424,-0.58253 0.35761,-1.17235 0.31959,-1.78724 -0.9806,0.11165 -1.94582,0.32929 -2.91914,0.49029 m -44.46102,1.16669 c -0.1335,0.0348 -0.32363,0.0558 -0.33577,0.22978 -1.41588,5.14409 -2.72253,10.3173 -4.10119,15.47191 -0.0882,0.34224 -0.20146,0.67719 -0.32282,1.00972 -0.26457,-0.18366 -0.26133,-0.5356 -0.35761,-0.81312 -1.19258,-4.32126 -2.40781,-8.63767 -3.63922,-12.9476 -0.0987,-0.44014 -0.21116,-0.8827 -0.42719,-1.28157 -0.1966,-0.002 -0.39402,0.006 -0.58819,0.0437 -1.87301,0.33576 -3.74197,0.70146 -5.61983,1.01215 -0.0178,0.53803 0.008,1.07607 0.008,1.6141 0.66425,-0.068 1.31394,-0.24515 1.97819,-0.30907 0.16505,0.0955 0.0922,0.31312 0.11327,0.46927 -0.0251,1.45552 -0.003,2.91104 -0.0631,4.36576 -0.0388,2.42884 -0.006,4.8601 -0.093,7.28732 -0.004,1.69987 -0.0275,3.39973 -0.038,5.09959 -0.0744,1.53644 -0.0348,3.07529 -0.0785,4.61253 -0.0283,0.29289 -0.004,0.58658 0.004,0.88028 -0.002,0.19984 -0.0534,0.45874 -0.2767,0.52104 -0.57364,0.23301 -1.19986,0.26052 -1.80019,0.38593 -0.0235,0.59143 -0.0396,1.18529 -0.0178,1.77672 1.19419,-0.1521 2.37463,-0.4013 3.56397,-0.58496 1.37866,-0.25 2.76865,-0.4458 4.14164,-0.72331 -0.0882,-0.57363 -0.30583,-1.11733 -0.43932,-1.68125 -0.77267,0.0728 -1.53239,0.24676 -2.30263,0.34709 -0.24676,0.0267 -0.58981,0.14725 -0.72816,-0.14078 -0.0453,-0.74516 0.0218,-1.49355 0.0502,-2.23952 0.007,-3.3439 0.0275,-6.68861 0.0413,-10.03332 -0.0194,-0.64726 0.0372,-1.29209 0.0583,-1.93773 0.0558,0.002 0.16828,0.006 0.22411,0.008 0.4725,1.46119 0.89322,2.93856 1.33335,4.41026 1.07041,3.65782 2.13029,7.31807 3.17157,10.98398 0.29046,0.99355 0.53075,2.00327 0.84467,2.98872 0.19984,-0.25728 0.32849,-0.55745 0.48302,-0.84143 0.74273,-1.4086 1.63595,-2.74519 2.73791,-3.89974 0.27508,-0.23948 0.005,-0.60114 -0.0356,-0.88836 -0.14968,-0.87056 -0.57364,-1.66588 -0.71037,-2.53968 -0.0841,-0.47898 0.0995,-0.94581 0.20469,-1.40617 1.00326,-3.98793 1.96848,-7.98475 2.99196,-11.96782 0.0558,-0.1602 0.0607,-0.35437 0.17961,-0.48221 0.15858,-0.0558 0.22007,0.10356 0.20793,0.23301 0.009,0.86248 0.0105,1.72576 -0.0372,2.58742 0.002,1.69906 -0.0372,3.39811 -0.0307,5.09798 -0.0291,1.69905 0.005,3.39972 -0.0688,5.09797 0.009,1.02428 -0.009,2.04857 -0.0194,3.07286 -0.3568,0.0963 -0.7225,0.14968 -1.08658,0.21036 -0.0534,0.59629 -0.0631,1.19743 -0.034,1.79533 2.19178,-0.31392 4.37628,-0.68528 6.54379,-1.13513 -0.27266,-0.31392 -0.6238,-0.57039 -0.79128,-0.9636 -0.46683,-1.00649 -0.41182,-2.14162 -0.40453,-3.22335 -8.1e-4,-2.37383 8e-4,-4.74765 -0.002,-7.12066 0.0801,-1.34711 0.0259,-2.69664 0.0413,-4.04456 0.006,-2.99519 0.0178,-5.99038 0.0397,-8.98476 0.0146,-0.16829 -0.0129,-0.37622 0.12136,-0.50325 0.58415,-0.19013 1.2217,-0.15776 1.79614,-0.38835 0.0283,-0.58172 0.15049,-1.17154 0.004,-1.7476 -2.12382,0.51457 -4.2978,0.76862 -6.43456,1.21604 m 26.07239,0.59143 c -1.28238,0.36813 -2.55101,0.94985 -3.47497,1.93854 -0.44742,0.4191 -0.80422,0.92882 -1.05907,1.48546 -0.0453,-0.006 -0.13512,-0.0202 -0.18043,-0.0267 -0.20793,-0.2678 -0.0591,-0.63998 -0.18528,-0.94095 -1.68368,0.38269 -3.40781,0.56069 -5.08341,0.97655 0.54289,0.45955 0.92154,1.13594 0.92478,1.85763 -0.0858,2.39648 -0.007,4.797 -0.0502,7.19509 -0.007,2.0235 0.007,4.04699 -0.017,6.07048 -0.0494,1.59145 -0.0688,3.18371 -0.0647,4.77677 1.3916,-0.16828 2.77107,-0.4466 4.14326,-0.73221 0.10518,-3.4782 0.0275,-6.96046 0.13107,-10.43786 0.002,-1.80747 0.021,-3.61494 0.0275,-5.42241 0.0194,-0.29531 -0.0267,-0.60276 0.0558,-0.88998 0.82445,-1.07768 2.1756,-1.55018 3.46041,-1.80747 0.0817,-1.23384 0.3657,-2.58256 1.33416,-3.43775 0.26942,-0.2945 0.64402,-0.44257 0.97574,-0.64969 -0.3123,-0.0291 -0.6335,-0.0445 -0.93771,0.0445 m -13.5269,4.03161 c -0.73788,0.15939 -1.49032,0.2225 -2.23547,0.33415 -1.04371,0.15615 -2.13677,0.34386 -3.02189,0.95714 -0.5526,0.36489 -0.9539,0.9191 -1.23546,1.50973 -0.15534,0.60276 -0.26457,1.22574 -0.22978,1.85116 -0.0121,3.42562 -0.0324,6.85042 -0.0413,10.27604 -0.0413,1.1594 0.0283,2.32123 -0.0518,3.47902 0.0526,0.47169 0.15858,0.95632 0.39402,1.373 0.32444,0.45712 0.77105,0.85842 1.31717,1.02347 0.36328,0.11489 0.74273,0.009 1.10763,-0.0437 2.21119,-0.38107 4.42644,-0.73706 6.63521,-1.12784 0.13835,-0.0121 0.2678,-0.10114 0.23706,-0.25648 0.003,-2.18126 0.002,-4.36333 0,-6.5446 -1.30989,0.47088 -2.5858,1.02914 -3.87627,1.54857 -0.0744,1.12461 -0.0809,2.25408 -0.0858,3.38193 -0.004,0.22249 0.002,0.46845 -0.14887,0.6513 -0.18205,0.30017 -0.61409,0.43447 -0.91992,0.25162 -0.22654,-0.20874 -0.41586,-0.50324 -0.40939,-0.8204 0.0566,-2.18611 -0.004,-4.37304 0.0348,-6.55997 0.01,-0.23463 0,-0.47573 0.0769,-0.70065 0.19903,-0.15535 0.45874,-0.20308 0.68771,-0.30341 1.43611,-0.56311 2.89406,-1.07283 4.32045,-1.66345 0.16667,-0.0615 0.34305,-0.16586 0.34629,-0.36732 0.0663,-1.35924 0.0453,-2.72172 0.0696,-4.08259 -0.0105,-0.83577 0.0413,-1.67154 0.007,-2.50732 -0.0267,-0.63593 -0.35438,-1.29532 -0.93448,-1.59549 -0.64241,-0.28156 -1.37543,-0.2055 -2.04372,-0.0639 m 34.61459,0.46441 c -0.80098,3.46931 -1.65294,6.92891 -2.4345,10.40226 0.80503,-0.0696 1.60116,-0.22411 2.38515,-0.41586 0.19984,-0.0502 0.15453,-0.29774 0.17557,-0.45227 -8.1e-4,-2.78079 0.0315,-5.56238 0.0315,-8.34317 0.009,-0.50567 0.0963,-1.02348 -0.017,-1.52106 -0.0688,0.0995 -0.1157,0.21198 -0.14078,0.3301 m -15.52531,3.40701 c -0.0728,0.0575 -0.20875,0.0971 -0.18852,0.21441 -0.0121,1.83498 0.0405,3.66834 0.0299,5.50332 0.28965,-0.10923 0.54127,-0.2937 0.80827,-0.44742 1.45309,-0.86409 2.92156,-1.70553 4.33178,-2.63758 -0.35114,-1.63838 -0.76458,-3.26623 -1.18934,-4.886 -1.3196,0.65373 -2.52917,1.50164 -3.79213,2.25327 m -19.38459,7.21532 c -0.23949,0.0599 -0.54047,0.0882 -0.65293,0.3479 -0.1877,0.42638 -0.13835,0.91264 -0.0858,1.36248 1.28562,-0.33334 2.4968,-0.89888 3.75087,-1.32931 0.16505,-0.0453 0.2767,-0.19903 0.29774,-0.36489 0.0502,-0.3746 -0.0218,-0.75001 -0.0502,-1.12299 -1.12057,0.25647 -2.16023,0.77752 -3.25976,1.10681 m 70.2551,0.61651 c -13.10861,2.46687 -26.2326,4.85121 -39.33635,7.34316 -0.26214,0.0574 -0.53966,0.0704 -0.7848,0.18608 -0.14159,0.32444 -0.17476,0.68205 -0.27752,1.01863 -0.23867,0.94499 -0.60599,1.86653 -0.71603,2.83823 8.92894,-2.15942 17.84574,-4.37143 26.76578,-6.56806 7.23311,-1.78806 14.46705,-3.57773 21.68884,-5.41028 0.0947,-0.0291 0.19984,-0.0583 0.25728,-0.14887 0.1869,-0.24434 0.36813,-0.49839 0.49758,-0.77913 -2.70149,0.48544 -5.3949,1.02347 -8.09478,1.52024 m -83.66145,3.00895 c -0.27104,0.85276 -0.37137,1.74922 -0.63108,2.60603 -0.12702,0.35113 -0.2055,0.75001 -0.0502,1.10762 0.10114,0.21521 0.13026,0.47088 0.27185,0.66263 0.16991,0.0162 0.3924,0.0453 0.50082,-0.11974 0.0364,-0.78157 -0.0202,-1.56556 0.0324,-2.34713 0.0113,-0.64645 0.003,-1.2929 0.004,-1.93854 -0.0324,0.007 -0.0963,0.0218 -0.12784,0.0291 m -8.9087,1.57284 c -0.0461,0.38107 -0.0162,0.767 -0.0235,1.1505 0.0138,1.02267 -0.0429,2.04453 -0.0299,3.06801 0.42638,-0.006 0.85519,-0.0445 1.27024,-0.14887 -0.0639,-0.53399 -0.24191,-1.0429 -0.37055,-1.56232 -0.20632,-0.77105 -0.43367,-1.53643 -0.70471,-2.28725 -0.0316,-0.0842 -0.0785,-0.15696 -0.14158,-0.22007 m 17.39993,9.2647 c 2.19421,0.82364 4.32126,1.81394 6.41515,2.86412 0.58738,0.29936 1.19581,0.55907 1.75811,0.90697 0.11651,0.0558 0.23464,0.15858 0.37299,0.12784 6.69751,-1.65213 13.42091,-3.20474 20.08687,-4.98147 0.12783,-0.0445 0.30664,-0.0801 0.31715,-0.24596 0.32849,-1.36248 0.74597,-2.70554 0.9895,-4.08663 -9.97911,1.8099 -19.93962,3.72659 -29.93977,5.41513 m 30.32651,-0.41586 c 0.57201,0.21036 1.16506,0.37622 1.76944,0.4636 0.004,-0.12217 0.009,-0.24354 0.0129,-0.36409 -0.57606,-0.0825 -1.11248,-0.339 -1.69096,-0.39725 -0.18609,-0.0696 -0.30583,0.26942 -0.0914,0.29774 m -0.29936,0.49272 c -0.0154,0.0566 -0.0477,0.17072 -0.0639,0.22735 0.42962,0.37298 1.02752,0.34062 1.53158,0.54532 0.0898,0.0275 0.17799,0.0744 0.27589,0.0736 0.14078,-0.0615 0.14644,-0.22735 0.17719,-0.35518 -0.47897,-0.21926 -1.00002,-0.31068 -1.50407,-0.45065 -0.13592,-0.038 -0.27751,-0.038 -0.41667,-0.0405 m -0.22088,0.98464 c -0.3212,1.08093 -0.52671,2.1934 -0.85195,3.27352 -0.34871,1.20713 -0.42153,2.51864 -1.07688,3.61817 -0.36894,0.56231 -0.81555,1.10439 -1.43692,1.39646 -1.16911,0.57768 -2.51298,0.44419 -3.76138,0.69338 -0.11408,0.0267 -0.26457,0.0696 -0.24272,0.21926 -0.0777,1.12785 -0.0138,2.26055 -0.0461,3.39083 -0.0324,1.10357 0.0315,2.20958 -0.0477,3.31154 -8.1e-4,0.97169 -0.002,1.94258 -0.003,2.91428 0.66829,-0.12217 1.32688,-0.29774 1.96281,-0.53561 0.62137,-0.22654 1.17882,-0.59062 1.75165,-0.91587 1.13027,-0.75163 1.90294,-1.9798 2.20715,-3.29293 1.11086,-4.23793 2.14404,-8.49527 3.19665,-12.74776 0.0874,-0.3382 0.19579,-0.67072 0.24919,-1.0162 -0.5178,-0.14159 -1.04127,-0.25971 -1.55989,-0.39483 -0.12055,-0.0146 -0.31716,-0.0987 -0.34062,0.0858 m -11.09887,9.30435 c -0.7403,3.03079 -1.32446,6.09718 -2.00003,9.14334 -0.0752,0.38512 -0.1958,0.76458 -0.2047,1.16021 0.64564,-0.11084 1.30666,-0.17557 1.92722,-0.39968 0.4458,-2.04696 0.87784,-4.09715 1.29694,-6.14977 0.25648,-1.28966 0.55745,-2.57285 0.74192,-3.87465 -0.589,-0.0841 -1.17801,0.0518 -1.76135,0.12055 m 2.26945,-0.17961 c -0.64969,3.3973 -1.49517,6.75738 -2.04291,10.1741 0.39159,0.007 0.77671,-0.0639 1.16264,-0.11894 0.52266,-0.0841 1.05341,-0.14158 1.56151,-0.29531 0.0307,-0.94095 0.0202,-1.8819 0.0469,-2.82124 0.072,-0.75244 -0.0146,-1.5073 0.0445,-2.25974 -0.005,-1.19905 0.0202,-2.3989 -0.0202,-3.59795 0,-0.36813 0.0235,-0.73869 -0.0372,-1.10358 -0.23868,-0.0129 -0.47816,-0.005 -0.71522,0.0227 m -4.51544,0.43609 c -0.15049,0.46683 -0.22492,0.95309 -0.34062,1.42882 -0.65697,2.98386 -1.28319,5.97501 -1.86006,8.97586 0.58981,0.007 1.15616,-0.18608 1.73384,-0.28074 0.50082,-2.11978 0.93448,-4.25411 1.38028,-6.38602 0.25486,-1.31475 0.56635,-2.62059 0.75568,-3.94585 -0.56312,0.005 -1.11329,0.13673 -1.66912,0.20793 m -2.18207,0.39563 c -0.75001,3.49358 -1.49436,6.98959 -2.22496,10.48722 0.56717,-0.013 1.11653,-0.18528 1.67479,-0.27428 0.80422,-3.48306 1.54695,-6.9815 2.1853,-10.49854 -0.5534,0.0356 -1.10195,0.13673 -1.63513,0.2856 m -2.14971,0.51943 c -0.14321,0.0356 -0.14321,0.19741 -0.18042,0.31311 -0.65455,2.91428 -1.12381,5.86578 -1.72171,8.79139 -0.0947,0.49354 -0.2403,0.97817 -0.28642,1.48142 0.5615,-0.11004 1.11814,-0.24515 1.66103,-0.42719 0.13431,-0.50001 0.24111,-1.00568 0.35438,-1.51054 0.55502,-2.54373 1.08092,-5.09393 1.57122,-7.6506 0.0752,-0.46279 0.19498,-0.91992 0.22007,-1.38918 -0.54208,0.11489 -1.09873,0.19337 -1.61815,0.39159 m -1.80666,0.38512 c -0.17881,0.0631 -0.49111,0.0429 -0.51538,0.28722 -0.72979,3.52675 -1.6044,7.02599 -2.19259,10.58106 0.58739,-0.10518 1.15616,-0.29531 1.73627,-0.43366 0.14159,-0.22897 0.13835,-0.51619 0.20389,-0.77186 0.69499,-3.29293 1.36814,-6.5899 1.99113,-9.89658 -0.41749,0.0186 -0.81555,0.15777 -1.22332,0.23382 m -2.25165,0.57768 c -0.14645,0.0494 -0.38755,0.0566 -0.38431,0.26376 -0.39483,1.9709 -0.80341,3.93937 -1.20067,5.91109 -0.30259,1.58174 -0.6513,3.15619 -0.89564,4.74845 0.41748,-0.0955 0.83091,-0.2144 1.23788,-0.3479 0.089,-0.038 0.21521,-0.0599 0.23625,-0.17314 0.085,-0.25324 0.12702,-0.51781 0.18851,-0.77671 0.74516,-3.30264 1.51863,-6.60124 2.11492,-9.93462 -0.44175,0.0591 -0.86166,0.21764 -1.29694,0.30907 m -2.61898,0.77104 c -0.006,2.66671 -0.18366,5.33342 -0.10194,8.00012 0.13997,-0.27832 0.15696,-0.59628 0.24434,-0.8916 0.56069,-2.50165 0.96604,-5.03486 1.51135,-7.53975 -0.56635,0.0647 -1.13513,0.18851 -1.65375,0.43123 m -1.41992,0.44742 c -0.89241,0.36085 -1.85035,0.71846 -2.47819,1.4887 -0.27104,0.26942 -0.21117,0.67881 -0.24192,1.02671 -0.0364,1.9434 -0.034,3.88679 -0.0469,5.83019 0.0202,0.66425 -0.0752,1.34953 0.1335,1.99274 0.051,0.1691 0.18366,0.35276 0.38269,0.33739 1.00487,0.0178 1.94421,-0.38269 2.89406,-0.65292 0.0898,-0.55422 0.0817,-1.11733 0.0938,-1.67721 0.004,-1.00002 0.009,-1.99922 0.0202,-2.99843 0.0728,-0.75244 8.1e-4,-1.5073 0.0469,-2.25974 -0.0105,-1.13109 0.0437,-2.26298 0.004,-3.39407 -0.2767,0.0825 -0.54208,0.1958 -0.80826,0.30664 z"
       inkscape:connector-curvature="0"
       style="fill:#003366;fill-opacity:1;stroke:none;stroke-opacity:1" />
    <path
       id="path12"
       d="m 28.00254,900.72206 c 0.16424,-0.46279 0.85438,-0.62218 1.17235,-0.22897 0.22816,0.2136 0.16019,0.54613 0.16424,0.82445 -0.01,1.61248 -0.003,3.22659 -0.0291,4.83826 -0.42072,0.2945 -0.94176,0.41829 -1.42963,0.56393 -0.0219,-1.50407 0.0243,-3.00814 0.0129,-4.51221 0.002,-0.49515 -0.0226,-1.00244 0.10922,-1.48546 z"
       inkscape:connector-curvature="0"
       style="fill:#003366;fill-opacity:1;stroke:none;stroke-opacity:1" />
  </g>
</svg>
